<?xml version="1.0" standalone="no"?>
<!DOCTYPE svg PUBLIC "-//W3C//DTD SVG 1.1//EN" "http://www.w3.org/Graphics/SVG/1.1/DTD/svg11.dtd">
<svg xmlns="http://www.w3.org/2000/svg">
<metadata>Generated by Fontastic.me</metadata>
<defs>
<font id="iconwidgets" horiz-adv-x="512">
<font-face font-family="iconwidgets" units-per-em="512" ascent="480" descent="-32"/>
<missing-glyph horiz-adv-x="512" />

<glyph glyph-name="alerta" unicode="&#97;" d="M464 38l-415 0c-15 0-28 7-35 20-7 13-7 29 0 42l208 354c7 13 20 20 34 20 14 0 27-7 35-20l207-354c8-13 8-29 1-42-8-13-20-20-35-20z m-208 416c-7 0-13-4-17-10l-208-354c-4-7-4-15 0-22 4-7 10-10 18-10l415 0c7 0 14 3 17 10 4 7 4 15 0 22l-207 354c-4 6-11 10-18 10z m0-347c-11 0-20 9-20 20 0 11 9 20 20 20 11 0 20-9 20-20 0-11-9-20-20-20z m0 70c-5 0-10 4-10 10l0 138c0 6 5 10 10 10 6 0 10-4 10-10l0-138c0-6-4-10-10-10z"/>
<glyph glyph-name="aniversariantes" unicode="&#98;" d="M227 293l19 0 0 45c0 3-1 6-3 8-10 8-16 23-16 43 0 24 18 58 29 77 11-19 29-53 29-77 0-20-6-35-16-43-2-2-3-5-3-8l0-45 19 0 0 41c12 12 19 31 19 55 0 40-38 98-40 101-4 5-12 5-16 0-2-3-40-61-40-101 0-24 7-43 19-55l0-41z m258-153c6 0 10 4 10 10l0 76c0 26-22 48-48 48l-382 0c-26 0-48-22-48-48l0-76c0-6 4-10 10-10 3 0 6 1 9 1l0-106-9 0c-6 0-10-4-10-9 0-6 4-10 10-10l458 0c6 0 10 4 10 10 0 5-4 9-10 9l-9 0 0 106c3 0 6-1 9-1z m-28-105l-402 0 0 117c5 4 8 9 11 13 7 9 11 13 18 13 7 0 10-3 18-13 7-11 18-25 39-25 22 0 32 15 40 25 7 9 11 13 18 13 7 0 10-3 17-13 8-11 19-25 40-25 21 0 32 15 40 25 7 9 10 13 17 13 7 0 11-3 18-13 8-11 19-25 40-25 21 0 32 15 39 25 7 9 11 14 18 14 7 0 10-4 18-14 3-4 6-9 11-13z m4 141c-7 10-16 22-33 22-17 0-25-12-33-22-8-10-13-17-24-17-11 0-17 7-25 17-7 10-16 22-33 22-17 0-25-12-32-22-8-10-14-17-25-17-11 0-16 7-24 17-8 10-16 22-33 22-17 0-26-12-33-22-8-10-14-17-25-17-11 0-16 7-24 17-8 10-16 22-33 22-17 0-25-12-33-22-5-7-9-12-15-15l0 65c0 16 13 29 29 29l382 0c16 0 29-13 29-29l0-65c-6 3-10 8-15 15z"/>
<glyph glyph-name="aniversariantes-interno" unicode="&#99;" d="M363 212l10 0 0 22c0 1-1 3-2 4-5 3-8 11-8 21 0 12 9 29 15 38 5-9 14-26 14-38 0-10-3-18-8-21-1-1-2-3-2-4l0-22 10 0 0 20c6 6 9 15 9 27 0 20-19 48-20 49-1 3-6 3-7 0-1-1-20-29-20-49 0-12 3-21 9-27z m128-76c2 0 4 2 4 5l0 38c0 13-10 23-23 23l-189 0c-13 0-23-10-23-23l0-38c0-3 2-5 4-5 2 0 4 0 5 1l0-53-5 0c-2 0-4-2-4-4 0-3 2-5 4-5l227 0c2 0 4 2 4 5 0 2-2 4-4 4l-5 0 0 53c1-1 3-1 5-1z m-15-52l-197 0 0 58c2 2 4 4 5 6 3 5 5 7 9 7 3 0 5-2 8-7 4-5 10-12 20-12 10 0 16 7 20 12 3 5 5 7 8 7 4 0 5-2 9-7 4-5 9-12 20-12 10 0 15 7 19 12 4 5 5 7 9 7 3 0 5-2 9-7 3-5 9-12 19-12 11 0 16 7 20 12 3 5 5 7 8 7 4 0 5-2 9-7 2-2 3-4 6-6l0-58z m3 70c-4 5-8 10-17 10-8 0-12-5-16-10-4-5-7-8-12-8-5 0-8 3-12 8-4 5-8 10-16 10-9 0-13-5-16-10-4-5-7-8-12-8-6 0-9 3-13 8-3 5-7 10-16 10-8 0-12-5-16-10-4-5-7-8-12-8-5 0-8 3-12 8-4 5-8 10-16 10-9 0-13-5-17-10-2-3-4-6-7-7l0 32c0 7 6 14 14 14l189 0c8 0 14-7 14-14l0-32c-3 1-5 4-7 7z m-148 260l-55 0c-3 0-6-2-6-5 0-3 3-5 6-5l50 0 0-79-298 0 0 79 70 0 0-16c-13-2-22-13-22-26 0-16 12-28 27-28 16 0 28 12 28 28 0 13-10 24-22 26l0 16 136 0 0-16c-12-2-22-13-22-26 0-16 12-28 28-28 15 0 27 12 27 28 0 13-9 24-22 26l0 44c0 3-2 5-5 5-3 0-6-2-6-5l0-18-136 0 0 18c0 3-3 5-6 5-3 0-5-2-5-5l0-18-75 0c-3 0-6-2-6-5l0-298c0-3 3-5 6-5l208 0 0 10-203 0 0 198 298 0 0-75 11 0 0 170c0 3-3 5-6 5z m-80-55c3 0 5 2 5 5l0 14c7-3 12-9 12-16 0-10-8-17-17-17-10 0-17 7-17 17 0 7 5 13 11 16l0-14c0-3 3-5 6-5z m-148 0c3 0 6 2 6 5l0 14c6-3 11-9 11-16 0-10-7-17-17-17-9 0-17 7-17 17 0 7 5 13 12 16l0-14c0-3 2-5 5-5z m202-91l-24 0 0 24c0 3-2 6-5 6-3 0-6-3-6-6l0-24-53 0 0 24c0 3-2 6-5 6-3 0-6-3-6-6l0-24-53 0 0 24c0 3-2 6-5 6-3 0-5-3-5-6l0-24-54 0 0 24c0 3-2 6-5 6-3 0-5-3-5-6l0-24-30 0c-2 0-5-3-5-6 0-3 3-5 5-5l30 0 0-37-30 0c-2 0-5-2-5-5 0-3 3-5 5-5l30 0 0-37-30 0c-2 0-5-2-5-5 0-3 3-5 5-5l30 0 0-25c0-2 2-5 5-5 3 0 5 3 5 5l0 25 54 0 0-25c0-2 2-5 5-5 3 0 5 3 5 5l0 25 31 0c3 0 5 2 5 5 0 3-2 5-5 5l-31 0 0 37 53 0 0 10-53 0 0 37 53 0 0-37 0 0 0-10 0 0 0-16c0-3 3-6 6-6 3 0 5 3 5 6l0 16 34 0c3 0 5 2 5 5 0 3-2 5-5 5l-34 0 0 37 53 0 0-14c0-3 3-5 6-5 3 0 5 2 5 5l0 14 24 0c2 0 5 2 5 5 0 3-3 6-5 6z m-162-95l-54 0 0 37 54 0z m0 47l-54 0 0 37 54 0z"/>
<glyph glyph-name="bloco-de-notas" unicode="&#100;" d="M393 236l102 102-46 46-56-56 0 133-64 0 0 14c0 6-5 11-11 11-6 0-11-5-11-11l0-14-34 0 0 14c0 6-5 11-12 11-6 0-11-5-11-11l0-14-33 0 0 14c0 6-6 11-12 11-6 0-11-5-11-11l0-14-34 0 0 14c0 6-5 11-11 11-7 0-12-5-12-11l0-14-33 0 0 14c0 6-5 11-12 11-6 0-11-5-11-11l0-14-64 0 0-438 376 0 0 207c0 0 0 0 0 0z m-164-97l22-22-35-12z m34-12l-25 24 172 172 25-24z m210 211l-28-28-24 24 28 28z m-392 101l0-11c0-6 5-11 11-11 7 0 12 5 12 11l0 11 33 0 0-11c0-6 5-11 12-11 6 0 11 5 11 11l0 11 34 0 0-11c0-6 5-11 11-11 6 0 12 5 12 11l0 11 33 0 0-11c0-6 5-11 11-11 7 0 12 5 12 11l0 11 34 0 0-11c0-6 5-11 11-11 6 0 11 5 11 11l0 11 41 0 0-72-330 0 0 72z m-41-393l0 306 330 0 0-47-148-148-4-5-1-1-26-72 72 26 107 108 0-167-330 0z"/>
<glyph glyph-name="busca-avancada" unicode="&#101;" d="M461 20c-6 0-13 3-18 8l-49 49c-42-25-97-18-131 17-21 20-32 47-32 76 0 28 11 56 32 76 20 20 47 31 76 31 28 0 55-11 76-31 36-36 42-94 13-136-2-4-6-4-10-2-3 2-4 6-1 9 25 37 20 87-12 119-18 18-41 28-66 28-25 0-49-10-67-28-17-18-27-41-27-66 0-25 10-49 27-67 32-31 82-36 119-11 3 2 6 1 9-1l53-53c2-3 5-4 8-4 3 0 6 1 9 4l1 1c2 2 3 5 3 8 0 3-1 6-3 8l-29 29c-3 2-3 7 0 10 3 2 7 2 10 0l29-29c4-5 7-11 7-18 0-7-3-13-7-18l-2-1c-4-5-11-8-18-8z m-127 281c-4 0-7 3-7 7l0 81-89 89-200 0 0-153c0-4-3-7-7-7-4 0-7 3-7 7l0 160c0 4 3 7 7 7l210 0c2 0 4-1 5-2l93-93c1-1 2-3 2-5l0-84c0-4-3-7-7-7z m0 84l-93 0c-4 0-7 3-7 7l0 93c0 3 2 5 4 6 3 1 6 1 8-1l93-93c2-2 2-5 1-8-1-2-3-4-6-4z m-86 14l69 0-69 69z m34-320l-251 0c-4 0-7 3-7 7l0 239c0 4 3 7 7 7 4 0 7-3 7-7l0-232 244 0c4 0 7-3 7-7 0-4-3-7-7-7z m-51 259l-139 0c-4 0-7 4-7 7 0 4 3 7 7 7l139 0c4 0 7-3 7-7 0-3-3-7-7-7z m0-44l-139 0c-4 0-7 3-7 7 0 4 3 7 7 7l139 0c4 0 7-3 7-7 0-4-3-7-7-7z m0-45l-139 0c-4 0-7 3-7 7 0 4 3 7 7 7l139 0c4 0 7-3 7-7 0-4-3-7-7-7z m-61-117l-78 0c-4 0-7 3-7 7l0 78c0 4 3 7 7 7l78 0c4 0 7-3 7-7l0-78c0-4-3-7-7-7z m-71 14l64 0 0 64-64 0z m239 89c-35 0-64-29-64-65 0-35 29-64 64-64 36 0 65 29 65 64 0 36-29 65-65 65z m0-117c-29 0-52 23-52 52 0 29 23 53 52 53 29 0 53-24 53-53 0-29-24-52-53-52z"/>
<glyph glyph-name="busca-de-aniversariantes" unicode="&#102;" d="M312 137c0-31 26-56 57-56 32 0 57 25 57 56 0 32-25 57-57 57-31 0-57-25-57-57z m103 0c0-25-20-46-46-46-25 0-46 21-46 46 0 26 21 47 46 47 26 0 46-21 46-47z m76-90l-24 25c-2 2-6 2-8 0-3-2-3-6 0-8l24-25c2-2 3-4 3-7 0-3-1-5-3-7l-1-1c-2-2-4-3-7-3-3 0-5 1-7 3l-46 46c-2 2-5 2-7 0-32-21-75-17-102 10-15 16-24 36-24 57 0 22 9 42 24 57 15 15 35 24 57 24 21 0 42-9 57-24 27-27 31-70 10-102-2-2-1-6 1-8 3-2 7-1 8 2 25 36 20 85-11 116-17 18-40 27-65 27-25 0-48-9-65-27-18-17-27-40-27-65 0-24 9-48 27-65 30-30 76-36 112-14l43-42c4-4 9-7 15-7 6 0 11 3 15 7l1 1c5 4 7 9 7 15 0 6-2 11-7 15z m-317 301l14 0 0 34c0 3-1 5-2 6-8 6-12 18-12 33 0 18 14 44 22 58 8-14 21-40 21-58 0-15-4-27-11-33-2-1-3-3-3-6l0-34 14 0 0 31c10 9 15 24 15 42 0 30-29 74-30 76-3 4-10 4-12 0-2-2-31-46-31-76 0-18 6-33 15-42l0-31z m86-196l-217 0 0 89c4 3 6 6 9 10 5 7 8 10 13 10 5 0 8-3 13-11 6-7 14-18 31-18 16 0 24 11 30 19 5 7 8 10 13 10 5 0 8-3 14-11 5-7 14-18 30-18 16 0 24 11 30 19 5 7 8 10 13 10 5 0 8-3 14-11 6-7 14-18 30-18 16 0 24 11 30 19 5 7 8 10 13 10 6 0 8-3 14-11 2-2 5-6 7-9 5 1 10 2 15 2 5 0 10-1 15-2l0 56c0 20-16 36-36 36l-290 0c-21 0-37-16-37-36l0-58c0-4 3-7 7-7 3 0 5 0 8 1l0-81-8 0c-4 0-7-3-7-7 0-4 3-8 7-8l239 0c0 3 0 6 0 8 0 3 0 5 0 7z m-231 96l0 49c0 12 9 22 21 22l291 0c12 0 22-10 22-22l0-49c-4 2-8 6-12 11-5 8-12 16-25 16-13 0-19-8-25-16-6-8-10-13-18-13-8 0-13 5-19 13-5 8-12 16-25 16-13 0-19-8-25-16-6-8-10-13-18-13-9 0-13 5-19 13-6 8-12 16-25 16-13 0-19-8-25-16-6-8-10-13-18-13-9 0-13 5-19 13-6 8-12 16-25 16-13 0-19-8-25-16-4-5-7-9-11-11z"/>
<glyph glyph-name="busca-de-pessoas" unicode="&#103;" d="M231 121c0 0 0 1 0 2l-14 40 14 33c1 3-1 7-4 9l-28 14c-2 1-5 1-7 0l-28-14c-3-2-5-6-3-9l13-33-13-40c-1-1-1-2-1-2l-106 0c-2 0-3 0-5 0-2-1-3-1-5-1-9 0-10 2-10 5 1 2 3 12 7 28 4 16 61 52 100 67 15 6 21 14 21 14 1 1 1 2 1 3 2 8 3 20 4 28 0 3-1 5-3 6-5 4-9 9-14 16-1 2-3 4-4 6-5 8-9 15-13 25-1 2-3 4-6 4-1 0-3 1-4 3-7 13-10 33-9 37 1 0 1-1 3-1 0 0 0 0 0 0 2 0 4 2 5 3 2 2 2 5 2 6-1 41 14 63 27 74 2 2 3 5 1 8 0 0 0 1 0 1 6 4 14 4 16 4 3 0 5 1 7 3 1 2 1 5 0 8-1 1 0 3 1 6 4-4 10-6 15-7 14-4 25-9 32-11 30-12 46-43 45-86-1-1 0-3 2-5 1-1 3-2 4-2 2 0 2 0 2 0 2-4-1-24-8-38-1-1-3-3-4-3-2 0-5-2-5-4-4-10-9-17-13-24-2-3-3-5-5-7-4-7-8-12-12-15-2-2-3-4-3-6 0-6 1-19 4-30 1-2 2-4 4-4l22-12c6-2 12-5 17-8 3 4 7 7 10 11-7 4-14 7-21 10l-19 10c-2 7-2 15-2 20 4 4 8 9 12 16 2 3 3 5 5 7 4 7 9 14 13 24 3 1 7 5 9 9 8 15 13 39 10 49-2 4-4 6-8 8 0 45-20 79-54 93-7 3-18 7-33 11-7 2-10 5-11 6 0 2-1 3-3 4-1 2-3 2-5 2-6-2-12-10-14-15-1-2-1-5-1-7-12-1-23-7-27-19 0-1 0-2 0-3-12-14-24-36-24-72-4-1-7-4-9-8-3-10 2-34 10-49 2-5 6-8 10-10 4-9 8-16 13-23 1-2 3-4 4-6 5-8 9-14 14-18 0-6-1-14-2-20-2-2-6-6-13-9-34-12-103-51-110-77-5-19-7-29-7-29 0-1 0-1 0-2 0-19 18-19 24-19l220 0c-3 5-5 10-7 15z m-56 0l13 40c1 1 1 3 0 5l-12 29 20 10 19-10-10-25-2 0c-4 0-7-3-7-7 0-4 3-7 7-7l2 0 11-35-41 0z m294-103c-6 0-12 2-16 6l-43 43c-36-22-84-16-114 14-18 18-28 42-28 67 0 25 10 48 28 66 18 18 41 28 66 28 25 0 49-10 66-28 32-32 37-81 12-119-2-2-6-3-8-1-3 2-4 5-2 8 22 32 18 76-10 104-16 15-36 23-58 23-22 0-42-8-58-23-15-16-24-36-24-58 0-22 9-43 24-58 28-28 72-32 104-10 2 2 5 1 7-1l47-46c2-2 4-3 7-3 3 0 5 1 7 3l1 1c2 2 3 4 3 7 0 3-1 5-3 7l-25 25c-2 2-2 6 0 8 3 3 6 3 9 0l25-24c4-5 6-10 6-16 0-6-2-12-6-16l-1-1c-5-4-10-6-16-6z m-108 188c-31 0-57-26-57-58 0-31 26-57 57-57 32 0 58 26 58 57 0 32-26 58-58 58z m0-104c-25 0-46 21-46 46 0 26 21 47 46 47 26 0 47-21 47-47 0-25-21-46-47-46z"/>
<glyph glyph-name="busca-em" unicode="&#104;" d="M389 391c-5 5-11 8-19 8l-163 0c-10 0-23 8-28 17l-11 18c-7 13-24 22-38 22l-89 0c-7 0-14-3-19-8-5-5-8-12-8-20l15-249c1-15 14-27 30-27l214 0c-2 3-3 7-4 11l-210 0c-10 0-18 8-18 17l-15 249c-1 4 1 8 4 11 3 4 7 5 11 5l89 0c10 0 23-7 28-16l11-19c2-4 6-7 10-11l-41 0c-3 1-8 1-15-3-9-6-15-19-17-40-4-44-21-154-21-155-1-3 1-6 5-7 0 0 0 0 0 0 3 0 5 2 6 5 0 1 17 112 21 156 2 22 9 29 12 32 3 2 6 1 6 1 1 0 1 0 2 0l233 0c4 0 8-2 11-5 3-3 4-7 4-11l-7-69-1-15c3 0 7-1 11-2l1 15 7 70c1 7-2 15-7 20z m87-335c-6 0-12 2-16 6l-42 42c-35-22-82-16-111 14-18 17-27 40-27 64 0 25 9 48 27 65 17 18 40 27 64 27 25 0 48-9 65-27 31-31 36-79 11-116-2-2-5-3-8-1-3 2-3 5-2 8 22 32 18 74-9 101-15 15-35 23-57 23-21 0-41-8-56-23-15-15-23-35-23-57 0-21 8-41 23-56 27-27 69-31 101-10 2 2 5 2 7 0l46-46c1-2 4-3 7-3 2 0 5 1 7 3l1 1c1 2 2 5 2 7 0 3-1 5-2 7l-25 24c-2 3-2 6 0 9 3 2 6 2 9 0l24-24c4-5 6-10 6-16 0-6-2-11-6-15l-1-1c-4-4-10-6-15-6z m-105 181c-30 0-54-24-54-54 0-31 24-55 54-55 31 0 55 24 55 55 0 30-24 54-55 54z m0-99c-24 0-44 20-44 45 0 24 20 44 44 44 25 0 45-20 45-44 0-25-20-45-45-45z"/>
<glyph glyph-name="calendario" unicode="&#105;" d="M476 19l-440 0c-4 0-7 3-7 8l0 297c0 4 3 7 7 7l440 0c4 0 7-3 7-7l0-297c0-5-3-8-7-8z m-432 15l424 0 0 282-424 0z m432 282l-440 0c-4 0-7 3-7 8l0 127c0 4 3 7 7 7l325 0c4 0 8-3 8-7 0-5-4-8-8-8l-317 0 0-112 424 0 0 112-72 0c-4 0-7 3-7 8 0 4 3 7 7 7l80 0c4 0 7-3 7-7l0-127c0-5-3-8-7-8z m-115 28c-22 0-39 17-39 39 0 22 17 40 39 40 22 0 39-18 39-40 0-22-17-39-39-39z m0 63c-13 0-24-10-24-24 0-13 11-24 24-24 13 0 24 11 24 24 0 14-11 24-24 24z m-210-63c-22 0-39 17-39 39 0 22 17 40 39 40 22 0 40-18 40-40 0-22-18-39-40-39z m0 63c-13 0-24-10-24-24 0-13 11-24 24-24 13 0 24 11 24 24 0 14-11 24-24 24z m210-28c-4 0-8 4-8 8l0 96c0 4 4 8 8 8 4 0 8-4 8-8l0-96c0-4-4-8-8-8z m-210 0c-4 0-8 4-8 8l0 96c0 4 4 8 8 8 4 0 8-4 8-8l0-96c0-4-4-8-8-8z m-27-321c-5 0-8 3-8 7l0 220c0 4 3 7 8 7 4 0 7-3 7-7l0-220c0-4-3-7-7-7z m91 0c-5 0-8 3-8 7l0 220c0 4 3 7 8 7 4 0 7-3 7-7l0-220c0-4-3-7-7-7z m91 79c-5 0-8 3-8 7l0 141c0 4 3 7 8 7 4 0 7-3 7-7l0-141c0-4-3-7-7-7z m90 70c-4 0-7 3-7 7l0 71c0 4 3 7 7 7 5 0 8-3 8-7l0-71c0-4-3-7-8-7z m42 27l-364 0c-4 0-7 3-7 8 0 4 3 7 7 7l364 0c4 0 7-3 7-7 0-5-3-8-7-8z m-77-67l-287 0c-4 0-7 3-7 8 0 4 3 7 7 7l287 0c4 0 8-3 8-7 0-5-4-8-8-8z m-95-67l-192 0c-4 0-7 3-7 8 0 4 3 7 7 7l192 0c4 0 7-3 7-7 0-5-3-8-7-8z"/>
<glyph glyph-name="central-do-conhecimento" unicode="&#106;" d="M493 236l-473 0 65 237 344 0z m-456 12l440 0-58 212-324 0z m456-12l-473 0 65 237 344 0z m-456 12l440 0-58 212-324 0z m220-151c-78 0-139 33-139 75 0 2 0 4 14 71 1 4 4 6 7 5 4 0 6-4 5-7-11-55-13-67-14-69 1-34 58-62 127-62 68 0 126 28 126 62 0 2-2 12-13 69-1 3 1 7 4 7 4 1 7-1 8-5 14-67 14-69 14-71 0-42-61-75-139-75z m6 270l-197 0c-3 0-6 3-6 6 0 3 3 6 6 6l197 0c3 0 6-3 6-6 0-3-3-6-6-6z m-193-224c-4 0-6 3-6 6l0 92c0 4 2 7 6 7 3 0 6-3 6-7l0-92c0-3-3-6-6-6z m0-104l-6 16c-4 10-22 60-22 72 0 16 12 28 28 28 15 0 28-12 28-28 0-12-19-62-22-72z m0 104c-9 0-16-7-16-16 0-6 8-31 16-52 7 21 15 46 15 52 0 9-7 16-15 16z m306 68l-119 0c-3 0-6 3-6 7 0 3 3 6 6 6l119 0c4 0 7-3 7-6 0-4-3-7-7-7z m7-30l-126 0c-4 0-6 3-6 7 0 3 2 6 6 6l126 0c4 0 7-3 7-6 0-4-3-7-7-7z m3-29l-129 0c-4 0-6 2-6 6 0 3 2 6 6 6l129 0c3 0 6-3 6-6 0-4-3-6-6-6z m-27-30l-102 0c-4 0-6 3-6 6 0 3 2 6 6 6l102 0c4 0 6-3 6-6 0-3-2-6-6-6z"/>
<glyph glyph-name="destaques" unicode="&#107;" d="M253 173c-9 0-18 6-23 15-4 8-14 14-23 14-3 0-6-1-9-2-11-5-22-3-29 4-5 5-8 13-7 21 0 12-10 24-23 26-10 1-18 7-21 14-4 8-3 17 2 26 7 10 4 26-6 33-8 7-12 15-11 23 1 9 6 16 15 21 11 6 16 21 12 32-4 9-4 18 1 25 5 8 14 12 24 11l1 0c12 0 24 10 25 22 2 15 12 24 24 24 6 0 11-2 16-5 4-2 9-4 13-4 9 0 16 4 21 10 6 7 14 11 21 11 10 0 18-5 23-15 4-8 14-13 23-13 4 0 7 0 10 2 11 4 22 2 29-5 4-5 7-12 7-20-1-13 10-25 22-26 10-2 18-7 22-15 3-7 2-17-3-25-7-11-4-26 6-34 8-6 12-14 11-23 0-8-6-16-15-21-11-5-16-20-12-32 4-9 4-18-1-25-5-7-13-11-24-11l0 0c-13 0-24-10-26-22-2-14-12-23-24-23-5 0-11 1-16 5-4 2-8 3-13 3-8 0-16-3-21-9-6-8-13-12-21-12z m-46 43c15 0 29-8 36-21 2-5 6-8 10-8 3 0 7 2 10 6 7 10 19 15 32 15 7 0 14-2 20-5 3-2 6-3 9-3 7 0 9 8 10 11 3 20 21 35 41 34l0 0c5 0 9 2 11 5 2 3 2 7 0 12-7 18 1 41 18 50 5 2 8 6 8 9 0 4-2 8-6 11-15 12-20 36-9 52 2 5 3 9 2 12-2 4-6 6-11 6-20 3-35 21-34 41 0 4-1 8-4 10-2 3-7 4-13 1-5-1-9-2-15-2-14 0-28 8-35 20-3 5-7 8-11 8-3 0-7-2-10-6-7-9-19-15-32-15-7 0-14 2-20 6-3 2-6 3-9 3-7 0-9-8-10-12-2-19-20-34-39-34-1 0-1 0-1 0l-1 0c-5 0-9-2-11-4-2-3-2-8 0-13 7-18-1-40-18-49-5-3-8-6-8-10 0-3 2-7 6-10 16-13 20-36 10-53-3-4-4-8-2-12 1-3 5-5 10-6 20-3 35-21 35-41 0-4 1-8 3-10 3-3 8-3 13-1 5 2 10 3 15 3z m58 0c-65 0-118 53-118 118 0 65 53 117 118 117 64 0 117-52 117-117 0-65-53-118-117-118z m0 221c-57 0-104-46-104-103 0-57 47-104 104-104 57 0 103 47 103 104 0 57-46 103-103 103z m127-395c-2 0-4 0-5 2-46 44-83 95-111 152-2 3 0 8 3 9 4 2 8 1 10-3 24-50 56-95 95-135-1 20-1 40 1 60 0 2 1 3 3 5 1 1 3 1 5 1 19-2 38-2 56-2-30 31-55 66-75 105-1 3 0 7 3 9 4 2 8 1 10-3 21-42 50-79 83-112 2-2 3-5 2-8-1-2-3-4-6-4-22-2-45-1-67 0-2-22-2-45 0-69 0-2-1-5-4-7-1 0-2 0-3 0z m-272-27c-1 0-2 0-3 1-3 1-4 4-4 7 2 23 2 46 0 69-22-2-45-3-67-1-3 0-5 2-6 4-1 3 0 6 2 8 44 43 79 96 102 154 1 4 5 6 9 4 4-1 6-5 4-9-21-54-54-105-94-148 18 0 37 1 56 2 2 1 4 0 5-1 2-1 3-3 3-5 1-20 2-40 1-60 36 37 66 79 89 124 2 4 7 5 10 3 4-1 5-6 3-9-27-53-63-100-105-141-1-1-3-2-5-2z"/>
<glyph glyph-name="enquete" unicode="&#108;" d="M411 438l-64 0c0 0 0 0-1-1-3 11-11 19-21 19-3 0-10 5-12 11l-5 12c-5 13-20 23-34 23l-27 0c-14 0-29-10-34-23l-4-12c-3-6-9-11-13-11-9 0-18-8-21-19 0 1-1 1-1 1l-73 0c-26 0-46-21-46-46l0-338c0-26 20-46 46-46l310 0c26 0 46 20 46 46l0 338c0 25-20 46-46 46z m-219-9c0 5 3 9 4 9 12 0 24 9 30 22l4 12c3 6 11 11 17 11l27 0c7 0 14-5 17-11l5-12c0-1 1-3 2-4l-15 0c-5 0-9-4-9-9 0-5 4-9 9-9l37 0c1 0 1 0 2 0 1 0 2 0 3 0 1 0 4-4 4-9l0-10c0-5-4-9-9-9l-119 0c-5 0-9 4-9 9z m247-375c0-16-12-28-28-28l-310 0c-16 0-28 12-28 28l0 338c0 15 12 27 28 27l73 0c0-15 12-27 27-27l119 0c15 0 27 12 27 27l64 0c16 0 28-12 28-27l0-338z m-201 219c-5 0-9-4-9-9l0-18-74 0 0 73 55 0c5 0 9 4 9 9 0 5-4 9-9 9l-64 0c-5 0-9-4-9-9l0-92c0-5 4-9 9-9l92 0c5 0 9 4 9 9l0 28c0 5-4 9-9 9z m-41-11l-1 1c1-1 1-1 1-1z m74 82c-4 3-9 3-13-1l-53-61-25 25c-3 3-9 3-13-1-3-3-3-9 0-13l29-30 1-1c2-2 4-3 7-3 2 0 5 2 7 4 0 0 0 0 0 0 1 1 1 1 2 2l59 66c3 4 3 10-1 13z m95-62l-55 0c-5 0-9-4-9-9 0-5 4-9 9-9l55 0c5 0 9 4 9 9 0 5-4 9-9 9z m-128-100l-92 0c-5 0-9-5-9-9l0-92c0-5 4-9 9-9l92 0c5 0 9 4 9 9l0 92c0 4-4 9-9 9z m-9-92l-74 0 0 73 74 0z m137 46l-55 0c-5 0-9-4-9-9 0-5 4-9 9-9l55 0c5 0 9 4 9 9 0 5-4 9-9 9z"/>
<glyph glyph-name="favoritos" unicode="&#109;" d="M401 23c-1 0-2 0-2 1l-143 54-142-54c-3-1-6-1-8 1-2 1-3 4-3 7l8 152-96 118c-2 3-2 5-2 8 1 3 3 4 6 5l147 40 83 128c2 2 4 3 7 3 3 0 5-1 7-3l83-128 147-40c3-1 5-2 6-5 1-3 0-5-2-8l-96-118 8-152c0-3-1-6-3-7-1-1-3-2-5-2z m-145 72c1 0 2 0 3 0l134-52-8 143c0 2 1 4 2 6l90 111-138 37c-2 1-4 2-5 3l-78 121-78-121c-1-1-3-2-5-3l-138-37 90-111c1-2 2-4 2-6l-8-143 134 52c1 0 2 0 3 0z"/>
<glyph glyph-name="forum" unicode="&#110;" d="M117 43c-2 0-3 1-5 2-2 1-3 4-3 6 0 11 1 22 1 32 1 20 2 40-2 67-59 33-93 84-93 140 0 97 108 176 241 176 133 0 241-79 241-176 0-98-108-178-241-177-56 0-43 5-43 9 0 5 3 6 43 6 124 0 226 73 226 162 0 88-102 161-226 161-124 0-226-73-226-162 0-50 33-97 89-128 2-1 4-3 4-5 5-30 4-52 3-74-1-7-1-14-1-20 36 11 59 32 73 49 16 20 19 14 23 11 3-3 3-3-11-21-16-20-46-45-91-57-1-1-1-1-2-1z m43 209c-17 0-31 14-31 31 0 17 14 31 31 31 17 0 31-14 31-31 0-17-14-31-31-31z m0 47c-9 0-15-7-15-16 0-9 6-15 15-15 9 0 16 6 16 15 0 9-7 16-16 16z m89-47c-17 0-31 14-31 31 0 17 14 31 31 31 17 0 31-14 31-31 0-17-14-31-31-31z m0 47c-9 0-16-7-16-16 0-9 7-15 16-15 9 0 16 6 16 15 0 9-7 16-16 16z m89-47c-17 0-31 14-31 31 0 17 14 31 31 31 17 0 31-14 31-31 0-17-14-31-31-31z m0 47c-9 0-16-7-16-16 0-9 7-15 16-15 9 0 16 6 16 15 0 9-7 16-16 16z"/>
<glyph glyph-name="html" unicode="&#111;" d="M16 257l121 122 8-8-113-114 113-113-8-8z m175-151l-10 5 139 292 10-5z m305 151l-121-121-8 8 113 114-113 113 8 8z"/>
<glyph glyph-name="indique" unicode="&#112;" d="M486 128l-350 0c-4 0-7 3-7 8 0 4 3 7 7 7l343 0 0 223-335 0 0-125c0-4-3-8-8-8-4 0-7 4-7 8l0 133c0 4 3 7 7 7l350 0c4 0 8-3 8-7l0-238c0-5-4-8-8-8z m-175 90c-1 0-3 0-5 1l-174 149c-4 3-4 8-1 11 2 3 7 3 10 1l170-145 170 145c3 2 8 2 11-1 3-3 2-8-1-11l-175-149c-1-1-3-1-5-1z m-181 37l-96 0c-5 0-8 3-8 7 0 5 3 8 8 8l96 0c4 0 7-3 7-8 0-4-3-7-7-7z m0-127l-104 0c-4 0-8 3-8 8 0 4 4 7 8 7l104 0c4 0 7-3 7-7 0-5-3-8-7-8z m127 56l-175 0c-5 0-8 4-8 8 0 4 3 8 8 8l175 0c4 0 7-4 7-8 0-4-3-8-7-8z"/>
<glyph glyph-name="links" unicode="&#113;" d="M181 164c-5 0-9 4-9 9l0 281c0 25 21 46 46 46 24 0 45-21 45-46l0-181c0-5-4-9-9-9-5 0-9 4-9 9l0 181c0 15-12 27-27 27-15 0-28-12-28-27l0-281c0-5-4-9-9-9z m73 72c-5 0-9 5-9 10l0 54c0 25 20 45 45 45 25 0 46-20 46-45l0-36c0-5-5-9-10-9-5 0-9 4-9 9l0 36c0 15-12 27-27 27-15 0-27-12-27-27l0-54c0-5-4-10-9-10z m72-8c-5 0-9 4-9 8l0 55c0 25 21 45 46 45 25 0 45-20 45-45l0-45c0-5-4-10-9-10-5 0-9 5-9 10l0 45c0 15-12 27-27 27-15 0-27-12-27-27l0-55c0-4-5-8-10-8z m-36-218l-45 0c-23 0-53 12-69 28l-3 3c-14 15-36 39-48 55l-83 106c-15 20-14 48 1 64 16 16 44 15 62-2l83-75c3-4 3-9 0-13-3-4-9-4-13-1l-82 76c-11 10-28 11-37 2-9-9-9-27 1-40l82-106c12-15 33-39 47-53l3-3c13-13 38-23 56-23l45 0c5 0 9-4 9-9 0-5-4-9-9-9z m123 0l-59 0c-5 0-9 4-9 9 0 5 4 9 9 9l59 0c27 0 50 24 50 54l0 91c0 5 4 9 9 9 5 0 9-4 9-9l0-91c0-40-31-72-68-72z m59 145c-5 0-9 4-9 9l0 100c0 15-13 27-28 27-15 0-27-12-27-27l0-36c0-6-4-10-9-10-5 0-9 4-9 10l0 36c0 25 20 45 45 45 25 0 46-20 46-45l0-100c0-5-4-9-9-9z"/>
<glyph glyph-name="lista-de-tarefas" unicode="&#114;" d="M470 283l-50 50c-3 3-8 3-11 0l-42-42 0 124c0 4-4 7-8 7l-62 0c-7 13-18 24-34 30-5 26-27 45-54 45-27 0-49-19-54-45-15-6-27-17-34-30l-74 0c-4 0-7-3-7-7l0-395c0-4 3-8 7-8l312 0c4 0 8 4 8 8l0 149 103 104c3 3 3 7 0 10z m-306 157l5 1 0 5c2 21 20 36 40 36 21 0 38-15 40-36l1-5 4-1c22-8 36-26 36-46 0-8-6-14-14-14l-134 0c-7 0-14 6-14 14 0 20 14 38 36 46z m188-413l-297 0 0 380 60 0c-1-4-2-9-2-13 0-16 14-29 29-29l134 0c16 0 29 13 29 29 0 4-1 9-2 13l49 0 0-131-118-118c-1-1-2-2-2-4l-14-63c-1-3 0-5 2-7 1-2 3-2 5-2 1 0 1 0 2 0l64 13c1 0 3 1 3 2l58 57 0-127z m-67 82l-50-10 11 50 141 141 40-39z m153 152l-40 40 17 16 39-39z m-258-114l-59-59-23 23c-3 3-8 3-11 0-3-3-3-8 0-10l29-29c1-1 3-2 5-2 2 0 4 1 6 2l64 64c3 3 3 8 0 11-3 3-8 3-11 0z m0 87l-59-59-23 23c-3 3-8 3-11 0-3-3-3-8 0-11l29-28c1-1 3-2 5-2 2 0 4 1 6 2l64 64c3 3 3 8 0 11-3 3-8 3-11 0z m0 86l-59-59-23 24c-3 3-8 3-11 0-3-3-3-8 0-11l29-28c1-2 3-3 5-3 2 0 4 1 6 3l64 64c3 3 3 8 0 10-3 3-8 3-11 0z"/>
<glyph glyph-name="ltimas-atualizaes" unicode="&#115;" d="M432 232l63 55-76 36 27 80-84-7-16 82-69-47-55 62-36-75-80 27 7-84-82-16 47-69-62-56 75-36-27-79 84 7 16-82 69 47 56-63 36 76 79-27-7 84 82 16z m-41-153l-72 25-33-69-51 57-63-43-15 75-76-6 24 72-69 33 58 51-44 63 75 15-6 76 73-24 32 69 51-58 63 44 15-75 77 6-25-73 69-33-57-50 43-63-75-15z m-274 160l7 3 64-34-23 52 7 4 29-66-6-2-66 35 24-54-7-3z m74 33l47 20 3-6-40-18 10-22 36 15 3-6-36-16 10-23 40 18 3-7-48-21z m57 25l8 3 43-46-6 63 6 2 42-47-5 63 8 4 5-77-6-2-41 45 5-61-6-3z m133-9l8 4 4-10-8-3z m-22 51l-3 5 9 4 2-6 16-42-4-2z"/>
<glyph glyph-name="ltimos-comentrios" unicode="&#116;" d="M433 48c-1 0-2 0-3 1l-79 48c-20-5-41-8-62-8-39 0-76 9-107 27-3 1-5 6-3 9 2 3 6 4 9 3 30-17 65-25 101-25 21 0 41 2 61 8 2 1 4 0 5-1l69-42-11 71c0 4 2 7 6 8 4 0 7-2 8-6l13-85c0-3-1-5-3-7-1-1-3-1-4-1z m2 100c-2 0-5 1-6 4-2 3 0 7 3 9 34 16 48 69 48 94 0 25-8 49-24 69-2 3-2 8 1 10 3 2 8 2 10-1 17-24 26-50 26-78 0-25-14-87-55-107-1 0-2 0-3 0z m-369-31c-1 0-2 0-4 1-2 2-3 4-2 7l13 81c-5 3-15 12-25 25-14 18-29 49-29 79 0 83 90 151 201 151 111 0 202-68 202-151 0-84-91-152-202-152-22 0-45 3-66 8l-84-48c-1-1-3-1-4-1z m154 331c-103 0-188-62-188-138 0-26 15-55 27-71 12-17 25-24 25-24 2-2 3-5 3-7l-12-71 75 42c1 1 3 1 5 1 21-6 43-9 65-9 104 0 188 62 188 139 0 76-84 138-188 138z"/>
<glyph glyph-name="mais-vistos" unicode="&#117;" d="M486 258c0 1-15 32-50 62-33 29-91 62-180 62-33 0-63-6-89-15l0 0c0 0 0 0 0 0-94-32-140-107-140-108l-3-4 3-4c0-2 75-124 229-124 89 0 147 34 180 62 35 31 50 61 50 62l2 4z m-152 98c17-19 26-43 26-68 0-57-47-103-104-103-57 0-103 46-103 103 0 24 8 47 23 66 24 7 50 12 80 12 30 0 56-4 78-10z m91-155c-31-27-85-58-169-58-129 0-199 91-213 112 10 14 45 60 108 89-9-17-14-36-14-56 0-66 53-119 119-119 66 0 120 53 120 119 0 21-6 41-16 59 70-28 103-79 110-92-5-9-19-32-45-54z m-169 30c31 0 56 25 56 56 0 30-25 55-56 55-14 0-27-5-38-15l11-11c7 7 17 10 27 10 22 0 40-17 40-39 0-22-18-40-40-40-22 0-40 18-40 40l-15 0c0-31 25-56 55-56z"/>
<glyph glyph-name="mapas" unicode="&#118;" d="M459 322c-1 3-2 5-5 6-2 2-5 2-8 2l-87-27c16 39 29 77 29 97 0 54-43 97-97 97-54 0-98-43-98-97 0-14 7-38 17-64l-27 9c-1 0-1 0-2 1 0 0 0 0-1 0 0 0 0 0 0 0 0 0 0 0 0 0-1 0-2 0-3-1l-124-47c-3-2-6-5-6-8l-29-250c0-4 1-7 4-9 2-2 6-3 9-2l143 47 158-50c0 0 0 0 0 0l0 0c1 0 2 0 3 0 1 0 2 0 3 0l148 38c5 1 8 6 8 11z m-168 156c43 0 78-35 78-78 0-34-50-144-78-200-28 56-79 166-79 200 0 43 36 78 79 78z m-226-196l105 40-6-229-125-41z m118-189l6 230 30-10c25-64 61-134 63-139 2-3 5-5 9-5 3 0 7 2 8 5 1 3 11 22 24 49l3-175z m162-45l-3 215c0 0 0 0 0 0 2 6 5 12 8 19 2-1 3-1 5 0l86 26 33-228z m-4 346c0 28-23 50-51 50-28 0-50-22-50-50 0-28 22-50 50-50 28 0 51 22 51 50z m-51-36c-19 0-35 16-35 36 0 19 16 35 35 35 20 0 36-16 36-35 0-20-16-36-36-36z"/>
<glyph glyph-name="meus-contatos" unicode="&#119;" d="M429 76l20 0c9 0 17 8 17 17l0 73c0 9-8 17-17 17l-20 0z m20-18l-21 0c-3-26-24-46-51-46l-267 0c-28 0-51 23-51 52l0 12-22 0c-5 0-9 4-9 10 0 5 4 9 9 9l22 0 0 38-22 0c-5 0-9 4-9 9 0 5 4 9 9 9l22 0 0 38-22 0c-5 0-9 4-9 9 0 6 4 10 9 10l22 0 0 37-22 0c-5 0-9 5-9 10 0 5 4 9 9 9l22 0 0 38-22 0c-5 0-9 4-9 9 0 5 4 10 9 10l22 0 0 37-22 0c-5 0-9 4-9 9 0 6 4 10 9 10l22 0 0 38-22 0c-5 0-9 4-9 9 0 5 4 9 9 9l22 0 0 13c0 28 23 51 51 51l267 0c27 0 48-20 51-45l21 0c19 0 35-16 35-35l0-73c0-11-4-20-11-27 7-6 11-15 11-26l0-73c0-10-4-19-11-26 7-6 11-16 11-26l0-73c0-20-16-35-35-35z m-39 388c0 18-15 32-33 32l-267 0c-18 0-33-14-33-32l0-13 22 0c5 0 9-4 9-9 0-5-4-9-9-9l-22 0 0-38 22 0c5 0 9-4 9-10 0-5-4-9-9-9l-22 0 0-37 22 0c5 0 9-5 9-10 0-5-4-9-9-9l-22 0 0-38 22 0c5 0 9-4 9-9 0-5-4-10-9-10l-22 0 0-37 22 0c5 0 9-4 9-10 0-5-4-9-9-9l-22 0 0-38 22 0c5 0 9-4 9-9 0-5-4-9-9-9l-22 0 0-38 22 0c5 0 9-4 9-9 0-6-4-10-9-10l-22 0 0-12c0-18 15-33 33-33l267 0c18 0 33 15 33 33z m19-245l20 0c9 0 17 8 17 17l0 73c0 10-8 17-17 17l-20 0z m0 126l20 0c9 0 17 7 17 16l0 74c0 9-8 16-17 16l-20 0z m-175 18c-18 0-33-15-33-33 0-17 15-32 33-32 18 0 32 15 32 32 0 18-14 33-32 33z m0-83c-28 0-51 22-51 50 0 29 23 51 51 51 28 0 51-22 51-51 0-28-23-50-51-50z m74-116l-148 0c-5 0-10 4-10 9l0 79c0 4 3 7 7 8l48 16c4 2 9 0 11-4l18-33 17 33c3 4 7 6 11 4l49-16c3-1 6-4 6-8l0-77c0-1 0-1 0-2 0-5-4-9-9-9z m-139 19l129 0 0 62-34 11-22-41c-2-3-5-5-8-5-4 0-7 2-9 5l-22 41-34-11 0-62z"/>
<glyph glyph-name="nossa-equipe" unicode="&#120;" d="M493 216c-5 17-33 51-66 66l-15 7c-1 4-2 9-2 14 4 3 7 7 11 13 1 2 2 4 3 6 4 5 7 11 11 19 3 2 6 5 8 8 7 13 12 34 8 44-1 3-3 6-6 8-1 38-18 67-47 79-6 2-16 6-29 9-2 1-3 2-5 2-2 1-5 2-10 2 0 0-1 0-2 0-9-2-16-6-19-12-7-2-15-6-18-18 0-1 0-2 0-3-8-9-14-20-17-33-1-5 1-9 6-11 5-1 10 2 11 7 4 13 10 24 19 32 2 2 3 7 2 10 1 0 2 2 3 2 0 0 0 0 0 0 5 0 9 2 9 6 0 2 4 1 6 2 2 0 3-1 5-1 1-1 3-1 6-2 12-3 20-7 26-9 24-10 37-35 36-69 0-2 1-4 3-6 1-2 3-2 5-3 0-5-3-18-8-27 0-1-1-1 0-1-4 0-6-3-8-6-3-8-6-13-10-20-1-1-2-3-4-5-3-6-6-10-9-12-3-2-4-5-4-7 0-6 1-17 3-26 1-3 3-5 5-6l20-10c28-12 53-42 56-55 6-17 6-18 6-22 0 0 0 0 0-1 0 0-6 0-8 0-2 1-5 1-7 1l-129 0c-5 0-9-4-9-9 0-5 4-9 9-9l140 0c6 0 11 0 16 4 3 4 5 8 5 14 0 6-1 10-6 28z m-308-37c0 5-4 9-10 9l-132 0c-2 0-4 0-6 0-2-1-6-1-6-1 0 1 0 1 0 1 0 0 0 8 4 23 3 14 36 44 64 54 13 5 19 13 19 13 1 1 1 2 2 3 2 10 2 22 3 25 0 3-2 6-4 8-4 2-7 6-11 12-1 2-2 4-3 5-4 7-8 12-11 20-1 4-4 6-7 6 0 0-1 1-1 1-5 9-8 22-8 27 3 0 5 1 6 3 2 1 3 4 3 6-1 26 6 47 21 60 3 2 4 6 3 9 0 1 1 1 2 1 0 0 1 0 1 0 5 0 9 3 9 7 1 1 3 3 4 3 2 0 3 0 4 0 2-1 4-1 7-2 10-2 18-5 26-9 15-6 26-18 32-35 1-5 6-7 11-6 5 2 7 7 6 11-7 22-22 39-42 47-8 3-18 7-28 9-5 2-6 2-9 3-2 0-3 0-6 0-1 1-2 1-3 0-5 0-13-4-17-11-6-1-15-6-19-18 0-1 0-2 0-3-10-12-20-30-20-59-4-1-6-4-7-8-4-10 1-31 8-44 2-3 5-6 9-8 3-8 7-14 10-19 1-2 3-4 4-6 3-6 7-10 11-14 0-5-1-10-1-14-2-2-5-4-10-6-33-12-70-45-76-67-4-17-4-27-4-27 0-6 2-11 5-14 4-4 9-4 15-4l142 0c6 0 10 4 10 9z m143-25l-20 10c-1 5-2 12-2 19 4 5 9 10 13 18 2 2 3 4 5 7 4 7 9 15 13 25 4 2 8 5 11 10 8 15 14 41 10 53-2 4-4 7-8 9-1 48-22 85-59 99-7 3-19 8-35 13-7 1-10 4-10 4-1 3-2 5-4 6-2 2-4 2-7 2-7-2-13-11-16-17 0-2-1-4-1-6-13-2-25-8-28-21-1-1-1-3-1-4-13-15-25-38-25-75-5-2-8-5-9-10-5-12 2-38 10-53 2-5 7-9 11-11 4-10 9-17 14-24 1-3 2-5 4-7 5-8 9-14 15-18 0-7-1-15-3-21-1-2-6-5-13-8-30-11-109-52-117-83-6-21-8-31-8-31 0-1 0-2 0-2 0-22 21-22 28-22l324 0c16 0 25 7 25 21 0 8-1 12-8 34-7 26-76 68-109 83z m-80-75l-12 31 20 10 21-10-11-26-2 0c-4 0-8-4-8-8 0-4 4-7 8-7l2 0 11-35-42 0 13 40c1 1 1 3 0 5z m179-44c-1-1-2-1-7-1-2 0-4 0-6 0-2 0-5 0-7 0l-114 0-14 42 14 35c2 4 0 8-3 9l-30 15c-2 1-5 1-7 0l-30-15c-4-1-5-5-4-9l14-35-14-42-113 0c-2 0-4 0-6 0l-4 0c-8 0-9 1-10 1 0 0 0 1 0 2 1 3 3 13 7 30 5 16 66 55 106 70 16 6 22 15 23 16 1 1 1 2 2 3 2 12 3 26 3 31 0 3-1 5-4 7-5 4-9 9-14 16-1 3-3 5-4 7-5 9-10 15-14 26-1 3-4 6-8 6 0 0-1 1-2 2-8 14-10 32-10 38 1 0 1 0 2 0 2 0 5 1 6 3 2 2 3 4 3 6-2 43 14 66 27 78 3 2 4 6 3 9 5 3 13 4 15 4 4-1 7 1 9 3 2 4 2 7 0 10-1 1 0 2 1 4 4-3 9-5 14-7 15-4 26-8 33-11 32-13 49-45 47-89 0-3 1-5 3-7 2-2 4-3 6-3 1 0 1 0 1 0 1-6-2-24-9-38-1-1-2-2-3-2-3-1-6-3-7-6-4-10-8-17-14-26-1-2-3-4-4-7-5-7-9-12-13-16-2-1-4-4-4-7 1-7 1-20 4-32 1-2 3-5 5-6l24-12c41-17 96-56 100-71 6-21 7-24 7-29 0-2 0-2 0-2z"/>
<glyph glyph-name="noticias" unicode="&#121;" d="M91 84c-40 0-73 33-73 74l0 280c0 5 3 9 8 9l403 0c5 0 8-4 8-9l0-14 51 0c4 0 8-4 8-8l0-258c0-38-28-69-66-73l-1 0z m345 324l0-306c25 7 43 29 43 56l0 250z m-16-307c0 0 0 328 0 329l-386 0 0-272c0-32 26-57 57-57z m-44 76l-142 0c-5 0-8 3-8 8 0 5 3 8 8 8l142 0c4 0 8-3 8-8 0-5-4-8-8-8z m0 50l-142 0c-5 0-8 4-8 9 0 4 3 8 8 8l142 0c4 0 8-4 8-8 0-5-4-9-8-9z m0 51l-299 0c-4 0-8 4-8 8 0 5 4 8 8 8l299 0c4 0 8-3 8-8 0-4-4-8-8-8z m-291 67l282 0 0 33-282 0z m291-17l-299 0c-4 0-8 4-8 9l0 49c0 4 4 8 8 8l299 0c4 0 8-4 8-8l0-49c0-5-4-9-8-9z m-291-185l102 0 0 84-102 0z m110-17l-118 0c-4 0-8 4-8 9l0 101c0 4 4 8 8 8l118 0c5 0 8-4 8-8l0-101c0-5-3-9-8-9z m181 0l-142 0c-5 0-8 4-8 9 0 4 3 8 8 8l142 0c4 0 8-4 8-8 0-5-4-9-8-9z"/>
<glyph glyph-name="notificacoes" unicode="&#122;" d="M270 120c-1 0-3 1-4 2l-108 82-19-78c-1-3-4-6-7-5-4 0-7 2-7 5l-23 133-81 56c-3 2-4 5-3 8 0 3 3 5 6 5l462 61c3 0 6-1 8-4 1-2 1-6-1-8l-76-89c-3-3-7-3-10-1-3 3-4 7-1 10l64 75-426-55 69-47c1-2 2-3 3-5l17-102 14 54c0 3 2 5 4 5 2 1 5 1 7-1l111-84 97 114c3 3 8 4 11 1 3-2 3-7 0-10l-101-119c-2-2-4-3-6-3z m-117 89c-2 0-5 1-6 4-2 3 0 7 3 9l334 166c4 2 8 1 10-3 1-4 0-8-3-10l-334-166c-1 0-2 0-4 0z m-7 59c-3 0-6 2-7 5-1 4 1 8 5 9l341 107c4 1 8-1 9-5 1-4-1-8-5-9l-341-107c-1 0-2 0-2 0z m-14-148c-2 0-4 1-6 3-2 3-2 7 1 10l60 54c3 3 7 3 10 0 2-3 2-8-1-10l-59-55c-2-1-4-2-5-2z"/>
<glyph glyph-name="rede-social" unicode="&#65;" d="M489 228c-4 4-15 8-35 16-3 1-6 2-8 3-3 1-5 2-6 3l0 2c11 11 16 25 16 42 0 25-15 43-38 44-24 48-69 83-122 95-4 21-19 35-40 35-21 0-36-14-40-35-53-12-98-47-122-95-23-1-38-19-38-44 0-17 5-31 16-42l0-2c-1-1-3-2-6-3-2-1-4-2-8-3-20-8-31-12-35-16-9-9-10-39-10-39 0-6 3-10 8-12 7-2 35-6 73-6 18-35 48-64 84-81-5-12-6-30-6-31 0-5 4-9 9-11 7-2 35-6 75-6 40 0 68 4 75 6 5 1 9 6 9 11 0 0-1 19-6 31 36 17 66 46 84 81 38 0 66 4 73 6 5 2 8 6 8 12 0 0-1 30-10 39z m-233 225c15 0 26-11 26-29 0-14-5-26-14-34-2-2-3-4-3-6l0-7c0-9 9-12 16-15 2-1 5-2 8-3 8-3 27-10 30-13 3-2 5-18 6-26-9-2-35-5-69-5-34 0-60 3-69 5 1 8 3 23 6 26 3 3 22 10 30 13 3 1 6 2 8 3 7 3 16 6 16 15l0 7c0 2-1 4-2 6-10 8-15 20-15 34 0 18 11 29 26 29z m-223-236c3 3 22 10 30 13 4 1 6 2 8 3 7 2 16 6 16 15l0 7c0 2-1 4-2 5-10 9-14 21-14 35 0 17 10 29 25 29 16 0 26-12 26-29 0-14-5-26-14-35-2-1-3-3-3-5l0-7c0-9 9-13 16-15 2-1 5-2 8-3 8-4 27-10 30-13 3-3 6-18 6-26-9-2-35-5-69-5-34 0-59 3-69 5 1 8 3 23 6 26z m223-161c-34 0-60 4-69 5 1 8 3 24 6 27 3 2 22 9 30 12 3 2 6 2 8 3 7 3 16 7 16 16l0 6c0 3-1 5-2 6-10 9-15 20-15 35 0 17 11 29 26 29 15 0 26-12 26-29 0-15-5-26-14-35-2-1-3-3-3-6l0-6c0-9 9-13 16-16 2-1 5-1 8-3 8-3 27-10 30-12 3-3 5-19 6-27-9-1-35-5-69-5z m68 46c-5 3-15 7-30 13-3 1-6 2-8 3-3 1-5 2-6 2l0 2c11 11 17 26 17 43 0 26-17 44-41 44-24 0-41-18-41-44 0-17 6-32 17-43l0-2c-1 0-3-1-6-2-2-1-5-2-8-3-15-6-25-10-30-13-32 15-59 39-77 69 32 1 55 5 61 6 5 2 8 6 8 12 0 0-1 30-11 39-4 4-14 8-35 16-3 1-6 2-7 3-4 1-6 2-7 3l0 2c11 11 17 25 17 42 0 21-11 37-27 42 22 40 60 70 106 81 1-14 6-26 16-36l0-2c-1-1-3-1-6-3-2 0-5-1-8-3-21-7-31-12-35-15-9-9-11-40-11-40 0-5 4-10 9-11 7-2 35-7 75-7 40 0 68 5 75 7 5 1 9 6 9 11 0 0-2 31-11 40-4 3-14 8-35 15-3 2-6 3-8 3-3 2-5 2-6 3l0 2c10 10 15 22 16 36 46-11 84-41 106-81-16-5-27-21-27-42 0-17 6-31 17-42l0-2c-1-1-3-2-7-3-1-1-4-2-7-3-21-8-31-12-35-16-10-9-11-39-11-39 0-6 3-10 8-12 6-1 29-5 61-6-18-30-44-54-77-69z m92 84c-34 0-60 3-69 5 0 8 3 23 6 26 3 3 22 10 30 13 3 1 6 2 8 3 7 2 16 6 16 15l0 7c0 2-1 4-3 5-9 9-14 21-14 35 0 17 10 29 26 29 15 0 25-12 25-29 0-14-4-26-14-35-1-1-2-3-2-5l0-7c0-9 9-13 16-15 2-1 4-2 8-3 8-4 27-10 30-13 2-3 5-18 6-26-10-2-35-5-69-5z"/>
<glyph glyph-name="rss" unicode="&#66;" d="M109 172c-35 0-64-29-64-64 0-35 29-64 64-64 36 0 64 29 64 64 0 35-28 64-64 64z m0-110c-25 0-46 21-46 46 0 25 21 46 46 46 25 0 46-21 46-46 0-25-21-46-46-46z m-55 266c-5 0-9-4-9-9l0-74c0-5 4-9 9-9 101 0 183-82 183-183 0-5 5-9 10-9l73 0c5 0 9 4 9 9 0 152-123 275-275 275z m202-266c-5 104-89 188-193 192l0 56c135-5 243-114 248-248z m-202 404c-5 0-9-4-9-9l0-72c0-5 4-9 9-9 178 0 324-145 324-323 0-5 4-9 9-9l71 0c5 0 9 4 9 9 0 227-185 413-413 413z m342-404c-5 181-152 328-333 332l0 53c211-5 381-175 386-385z"/>
<glyph glyph-name="tags" unicode="&#67;" d="M144 135c-2 0-3 1-5 2l-38 39c-7 7-11 16-11 26 0 10 4 19 11 26l153 153c20 21 48 36 74 40 34 6 64-4 89-29 19-19 29-41 31-66 0-3-3-6-7-7-3 0-6 3-7 7-1 21-10 40-26 57-53 53-118 16-145-11l-153-153c-5-4-7-11-7-17 0-6 2-12 7-17l39-39c2-2 2-6 0-9-2-1-3-2-5-2z m83-70c-10 0-19 3-26 11l-32 32c-3 2-3 7 0 9 2 3 6 3 9 0l32-32c5-5 11-7 17-7 7 0 13 2 17 7l153 153c16 15 28 36 34 56 1 4 5 6 8 5 4-1 6-5 5-8-7-23-20-45-37-62l-153-153c-7-8-17-11-27-11z m128 221c-12 0-23 4-31 12-9 9-13 20-13 31 0 12 4 23 13 31 8 9 19 13 31 13 11 0 22-4 30-13 9-8 13-19 13-31 0-11-4-22-13-31-8-8-19-12-30-12z m0 74c-9 0-16-3-22-9-6-6-9-13-9-22 0-8 3-15 9-21 6-6 13-9 22-9 8 0 15 3 21 9 6 6 9 13 9 21 0 9-3 16-9 22-6 6-13 9-21 9z m86-40c-2 0-4 0-5 2-2 3-2 7 1 9 5 4 10 9 15 13 15 15 25 32 30 48 4 14 2 26-5 33-15 15-52 3-81-25-22-23-35-51-31-70 1-3-2-7-5-7-4-1-7 1-8 5-4 23 9 55 35 81 35 35 79 46 100 25 10-10 13-26 7-46-5-18-17-37-33-53-5-5-10-10-16-14-1-1-3-1-4-1z m-301-232c-2 0-3 0-5 0-10 1-19 6-25 14l-87 111c-6 8-9 18-8 28 1 10 6 19 14 25l170 133c31 24 83 44 129 21 3-2 4-6 3-9-2-3-6-5-9-3-41 20-87 2-114-19l-171-134c-5-3-8-9-9-16 0-6 1-12 5-17l88-112c4-5 9-8 16-9 6-1 12 1 17 5l15 12c3 2 7 1 9-1 3-3 2-7-1-10l-14-11c-7-6-15-8-23-8z"/>
<glyph glyph-name="tempo" unicode="&#68;" d="M190 348c31 0 58-17 71-44 3-5 9-7 14-5 5 2 7 8 4 13-16 35-51 57-89 57-55 0-99-45-99-100 0-37 20-70 52-88 2 0 3-1 5-1 4 0 7 2 9 6 3 4 1 11-4 13-26 14-42 41-42 70 0 44 35 79 79 79z m114-26l32 19c5 3 7 9 4 15-3 5-10 7-15 4l-32-19c-5-3-7-9-4-15 3-5 10-7 15-4z m-57 46c5-3 12-1 15 4l19 32c3 5 1 12-4 15-6 3-12 1-15-4l-19-32c-3-5-1-12 4-15z m-129 4c3-5 10-7 15-4 5 3 7 10 4 15l-18 32c-3 5-10 7-15 4-6-3-8-10-4-15z m72 11c6 0 11 5 11 11l0 37c0 6-5 11-11 11-6 0-11-5-11-11l0-37c0-6 5-11 11-11z m-146-42l32-19c5-3 12-1 15 4 3 5 1 12-4 15l-32 19c-5 3-12 1-15-4-3-6-1-12 4-15z m371-134c0 48-40 88-89 88-48 0-88-40-88-88 0-1 0-2 0-3-5 2-10 3-15 3-32 0-59-27-59-59 0-6 1-12 3-17-3 1-7 2-10 2-20 0-37-17-37-37 0-20 17-37 37-37l258 0c41 0 73 33 73 74 0 41-32 74-73 74z m0-126l-258 0c-9 0-17 6-17 15 0 9 8 17 17 17 1 0 3-1 4-1 2-1 4-1 6-1 5 0 10 2 14 6 5 5 7 13 5 20-1 4-1 7-1 11 0 21 17 38 38 38 3 0 6 0 10-1 2-1 3-1 5-1 5 0 9 2 13 5 5 4 8 10 7 16 0 1 0 1 0 2 0 37 31 68 68 68 38 0 69-31 69-68 0-12 9-21 20-21 29 0 53-24 53-53 0-30-24-52-53-52z m-339 135l-32-18c-5-3-7-10-4-15 3-6 10-8 15-4l32 18c5 3 7 10 4 15-3 5-10 7-15 4z m0 53c0 6-5 11-11 11l-37 0c-6 0-11-5-11-11 0-6 5-11 11-11l37 0c6 0 11 5 11 11z"/>
<glyph glyph-name="video" unicode="&#69;" d="M213 185c-1 0-2 0-3 1-3 1-4 4-4 6l0 125c0 3 1 5 4 7 2 1 5 1 7 0l109-63c2-1 3-4 3-6 0-3-1-6-3-7l-109-62c-1-1-2-1-4-1z m8 119l0-99 86 50z m265-244l-460 0c-4 0-7 3-7 7l0 375c0 4 3 8 7 8l460 0c4 0 7-4 7-8l0-375c0-4-3-7-7-7z m-452 15l444 0 0 360-444 0z m402 63l-410 0c-4 0-7 4-7 8 0 4 3 7 7 7l410 0c4 0 8-3 8-7 0-4-4-8-8-8z m50 218l-403 0c-5 0-8 4-8 8 0 4 3 7 8 7l403 0c4 0 7-3 7-7 0-4-3-8-7-8z m-371 0c-4 0-7 4-7 8l0 78c0 4 3 8 7 8 5 0 8-4 8-8l0-78c0-4-3-8-8-8z m94 0c-4 0-7 4-7 8l0 78c0 4 3 8 7 8 4 0 8-4 8-8l0-78c0-4-4-8-8-8z m94 0c-4 0-8 4-8 8l0 78c0 4 4 8 8 8 4 0 7-4 7-8l0-78c0-4-3-8-7-8z m94 0c-5 0-8 4-8 8l0 78c0 4 3 8 8 8 4 0 7-4 7-8l0-78c0-4-3-8-7-8z m-282-296c-4 0-7 3-7 7l0 79c0 4 3 7 7 7 5 0 8-3 8-7l0-79c0-4-3-7-8-7z m94 0c-4 0-7 3-7 7l0 79c0 4 3 7 7 7 4 0 8-3 8-7l0-79c0-4-4-7-8-7z m94 0c-4 0-8 3-8 7l0 79c0 4 4 7 8 7 4 0 7-3 7-7l0-79c0-4-3-7-7-7z m94 0c-5 0-8 3-8 7l0 79c0 4 3 7 8 7 4 0 7-3 7-7l0-79c0-4-3-7-7-7z"/>
<glyph glyph-name="wikiglossario" unicode="&#70;" d="M265 105c42 43 101 28 161 7l17-7z m-197 0l18 7c56 21 111 35 156-7z m-14 305c19 0 34 2 47 5l13 2c54 9 91 5 127-19l3-3 0-270c-50 39-112 23-165 3l-25-10 0 292z m213-12c35 26 84 27 129 19l9-1c16-3 32-6 52-6l0-293-25 10c-56 21-122 38-170-2l0 269 0 0z m200 34c-28 0-46 4-68 8-50 8-103 6-143-23l-5 0c-41 28-83 31-140 22-27-4-65-7-65-7-6-1-17-2-17-13l0-325c0-6 6-12 13-12l163 0c0-1-1-3-1-4 0-7 6-12 13-12l78 0c7 0 13 5 13 12 0 1-1 3-1 4l163 0c7 0 13 6 13 12l0 324c0 15-16 14-16 14z"/>
<glyph glyph-name="quiz" unicode="&#71;" d="M412 440l-64 0c-1 0-1 0-2 0-3 10-11 18-21 18-3 0-10 5-12 12l-5 11c-5 13-20 23-34 23l-27 0c-14 0-29-10-34-23l-5-11c-2-7-9-12-12-12-10 0-18-8-21-18-1 0-1 0-2 0l-73 0c-26 0-46-21-46-46l0-340c0-26 20-46 46-46l312 0c26 0 46 20 46 46l0 340c0 25-20 46-46 46z m-220-9c0 5 3 9 4 9 12 0 24 10 29 23l5 11c2 6 10 12 17 12l27 0c7 0 15-6 17-12l5-11c0-2 1-3 2-5l-14 0c-6 0-10-4-10-9 0-5 4-9 10-9l36 0c1 0 1 0 2 0 1 0 2 0 3 0 1 0 4-4 4-9l0-9c0-6-4-10-9-10l-119 0c-5 0-9 4-9 10z m248-377c0-15-13-28-28-28l-312 0c-15 0-28 13-28 28l0 340c0 15 13 28 28 28l73 0c0-16 13-28 28-28l119 0c16 0 28 12 28 28l64 0c15 0 28-13 28-28l0-340z m-256 203c0 9 3 18 9 27 6 10 14 18 25 24 12 6 25 9 40 9 14 0 26-3 36-8 11-5 19-12 25-21 6-9 9-18 9-29 0-8-2-15-5-21-3-6-7-11-12-16-4-4-13-12-24-22-4-3-6-6-8-8-2-2-4-4-5-6-1-2-1-4-2-6 0-2-1-5-2-10-2-10-8-15-17-15-5 0-9 2-13 5-3 3-5 8-5 15 0 8 1 15 4 21 2 5 6 11 10 15 4 5 9 10 16 16 6 5 11 9 14 12 2 3 5 6 7 9 1 4 2 7 2 11 0 8-2 14-8 20-6 5-13 8-22 8-11 0-19-3-24-9-4-5-9-13-12-23-3-11-10-16-19-16-5 0-10 2-13 5-4 4-6 8-6 13z m70-158c-6 0-11 2-15 6-4 4-7 9-7 16 0 6 2 11 7 15 4 4 9 6 15 6 6 0 11-2 15-6 5-4 7-9 7-15 0-7-2-12-7-16-4-4-9-6-15-6z"/>
<glyph glyph-name="termos" unicode="&#72;" d="M133 378l177 0 0-17-177 0z m0-47l247 0 0-17-247 0z m0-46l247 0 0-18-247 0z m0-47l177 0 0-17-177 0z m287-61c0-6-5-11-11-11-6 0-11 5-11 11 0 6 5 11 11 11 6 0 11-5 11-11z m-1-1c0-6-5-11-11-11-6 0-11 5-11 11 0 6 5 11 11 11 6 0 11-5 11-11z m0-1c0-6-5-11-11-11-6 0-11 5-11 11 0 6 5 11 11 11 6 0 11-5 11-11z m-1-1c0-6-5-11-11-11-6 0-11 5-11 11 0 6 5 11 11 11 6 0 11-5 11-11z m-1-1c0-6-5-11-11-11-6 0-11 5-11 11 0 6 5 11 11 11 6 0 11-5 11-11z m0-1c0-6-5-11-11-11-6 0-11 5-11 11 0 6 5 11 11 11 6 0 11-5 11-11z m-1-1c0-6-5-11-11-11-6 0-11 5-11 11 0 6 5 11 11 11 6 0 11-5 11-11z m-1-1c0-6-5-11-11-11-6 0-11 5-11 11 0 6 5 11 11 11 6 0 11-5 11-11z m-1-1c0-6-4-11-10-11-6 0-11 5-11 11 0 6 5 11 11 11 6 0 10-5 10-11z m0-1c0-6-5-11-11-11-6 0-11 5-11 11 0 6 5 11 11 11 6 0 11-5 11-11z m-1-1c0-6-5-11-11-11-6 0-11 5-11 11 0 6 5 11 11 11 6 0 11-5 11-11z m-1-1c0-6-4-11-10-11-7 0-11 5-11 11 0 6 4 11 11 11 6 0 10-5 10-11z m0-1c0-6-5-11-11-11-6 0-11 5-11 11 0 6 5 11 11 11 6 0 11-5 11-11z m-1-1c0-6-5-11-11-11-6 0-11 5-11 11 0 6 5 11 11 11 6 0 11-5 11-11z m-1-1c0-6-5-11-11-11-6 0-10 5-10 11 0 6 4 11 10 11 6 0 11-5 11-11z m0-1c0-6-5-11-11-11-6 0-11 5-11 11 0 6 5 11 11 11 6 0 11-5 11-11z m-1-1c0-6-5-11-11-11-6 0-11 5-11 11 0 6 5 11 11 11 6 0 11-5 11-11z m-1-1c0-6-5-11-11-11-6 0-11 5-11 11 0 6 5 11 11 11 6 0 11-5 11-11z m0-1c0-6-5-11-11-11-6 0-11 5-11 11 0 6 5 11 11 11 6 0 11-5 11-11z m-1-1c0-6-5-11-11-11-6 0-11 5-11 11 0 6 5 11 11 11 6 0 11-5 11-11z m-1-1c0-6-5-11-11-11-6 0-11 5-11 11 0 6 5 11 11 11 6 0 11-5 11-11z m0-1c0-6-5-10-11-10-6 0-11 4-11 10 0 6 5 11 11 11 6 0 11-5 11-11z m-1-1c0-6-5-10-11-10-6 0-11 4-11 10 0 7 5 11 11 11 6 0 11-4 11-11z m-1-1c0-6-5-10-11-10-6 0-11 4-11 10 0 7 5 11 11 11 6 0 11-4 11-11z m0 0c0-7-5-11-11-11-6 0-11 4-11 11 0 6 5 10 11 10 6 0 11-4 11-10z m-1-1c0-6-5-11-11-11-6 0-11 5-11 11 0 6 5 10 11 10 6 0 11-4 11-10z m-1-1c0-6-5-11-11-11-6 0-11 5-11 11 0 6 5 11 11 11 6 0 11-5 11-11z m-1-1c0-6-4-11-10-11-7 0-11 5-11 11 0 6 4 11 11 11 6 0 10-5 10-11z m0-1c0-6-5-11-11-11-6 0-11 5-11 11 0 6 5 11 11 11 6 0 11-5 11-11z m-1-1c0-6-5-11-11-11-6 0-11 5-11 11 0 6 5 11 11 11 6 0 11-5 11-11z m-1-1c0-6-4-11-11-11-6 0-10 5-10 11 0 6 4 11 10 11 7 0 11-5 11-11z m0-1c0-6-5-11-11-11-6 0-11 5-11 11 0 6 5 11 11 11 6 0 11-5 11-11z m-1-1c0-6-5-11-11-11-6 0-11 5-11 11 0 6 5 11 11 11 6 0 11-5 11-11z m-1-1c0-6-5-11-11-11-6 0-11 5-11 11 0 6 5 11 11 11 6 0 11-5 11-11z m0-1c0-6-5-11-11-11-6 0-11 5-11 11 0 6 5 11 11 11 6 0 11-5 11-11z m-1-1c0-6-5-11-11-11-6 0-11 5-11 11 0 6 5 11 11 11 6 0 11-5 11-11z m-1-1c0-6-5-11-11-11-6 0-11 5-11 11 0 6 5 11 11 11 6 0 11-5 11-11z m0-1c0-6-5-11-11-11-6 0-11 5-11 11 0 6 5 11 11 11 6 0 11-5 11-11z m-1-1c0-6-5-11-11-11-6 0-11 5-11 11 0 6 5 11 11 11 6 0 11-5 11-11z m-1-1c0-6-5-11-11-11-6 0-11 5-11 11 0 6 5 11 11 11 6 0 11-5 11-11z m0-1c0-6-5-11-11-11-6 0-11 5-11 11 0 6 5 11 11 11 6 0 11-5 11-11z m-1-1c0-6-5-11-11-11-6 0-11 5-11 11 0 6 5 11 11 11 6 0 11-5 11-11z m-1-1c0-6-5-11-11-11-6 0-11 5-11 11 0 6 5 11 11 11 6 0 11-5 11-11z m-1-1c0-6-4-11-10-11-6 0-11 5-11 11 0 6 5 11 11 11 6 0 10-5 10-11z m0-1c0-6-5-11-11-11-6 0-11 5-11 11 0 6 5 11 11 11 6 0 11-5 11-11z m-1-1c0-6-5-11-11-11-6 0-11 5-11 11 0 6 5 11 11 11 6 0 11-5 11-11z m-1-1c0-6-4-11-11-11-6 0-10 5-10 11 0 6 4 11 10 11 7 0 11-5 11-11z m0-1c0-6-5-11-11-11-6 0-11 5-11 11 0 6 5 11 11 11 6 0 11-5 11-11z m-1-1c0-6-5-11-11-11-6 0-11 5-11 11 0 6 5 11 11 11 6 0 11-5 11-11z m-1-1c0-6-5-11-11-11-6 0-11 5-11 11 0 6 5 11 11 11 6 0 11-5 11-11z m0-1c0-6-5-11-11-11-6 0-11 5-11 11 0 6 5 11 11 11 6 0 11-5 11-11z m-1-1c0-6-5-11-11-11-6 0-11 5-11 11 0 6 5 11 11 11 6 0 11-5 11-11z m-1-1c0-6-5-11-11-11-6 0-11 5-11 11 0 6 5 11 11 11 6 0 11-5 11-11z m0-1c0-6-5-11-11-11-6 0-11 5-11 11 0 6 5 11 11 11 6 0 11-5 11-11z m-1-1c0-6-5-11-11-11-6 0-11 5-11 11 0 6 5 11 11 11 6 0 11-5 11-11z m-1-1c0-6-5-11-11-11-6 0-11 5-11 11 0 6 5 11 11 11 6 0 11-5 11-11z m0-1c0-6-5-11-11-11-6 0-11 5-11 11 0 6 5 11 11 11 6 0 11-5 11-11z m-1-1c0-6-5-11-11-11-6 0-11 5-11 11 0 6 5 11 11 11 6 0 11-5 11-11z m-1-1c0-6-5-10-11-10-6 0-11 4-11 10 0 6 5 11 11 11 6 0 11-5 11-11z m-1 0c0-7-4-11-10-11-6 0-11 4-11 11 0 6 5 10 11 10 6 0 10-4 10-10z m0-1c0-7-5-11-11-11-6 0-11 4-11 11 0 6 5 10 11 10 6 0 11-4 11-10z m-1-1c0-6-5-11-11-11-6 0-11 5-11 11 0 6 5 10 11 10 6 0 11-4 11-10z m-1-1c0-6-4-11-10-11-6 0-11 5-11 11 0 6 5 10 11 10 6 0 10-4 10-10z m0-1c0-6-5-11-11-11-6 0-11 5-11 11 0 6 5 11 11 11 6 0 11-5 11-11z m-1-1c0-6-5-11-11-11-6 0-11 5-11 11 0 6 5 11 11 11 6 0 11-5 11-11z m-1-1c0-6-4-11-11-11-6 0-10 5-10 11 0 6 4 11 10 11 7 0 11-5 11-11z m0-1c0-6-5-11-11-11-6 0-11 5-11 11 0 6 5 11 11 11 6 0 11-5 11-11z m-1-1c0-6-5-11-11-11-6 0-11 5-11 11 0 6 5 11 11 11 6 0 11-5 11-11z m-1-1c0-6-5-11-11-11-6 0-11 5-11 11 0 6 5 11 11 11 6 0 11-5 11-11z m0-1c0-6-5-11-11-11-6 0-11 5-11 11 0 6 5 11 11 11 6 0 11-5 11-11z m-1-1c0-6-5-11-11-11-6 0-11 5-11 11 0 6 5 11 11 11 6 0 11-5 11-11z m-1-1c0-6-5-11-11-11-6 0-11 5-11 11 0 6 5 11 11 11 6 0 11-5 11-11z m0-1c0-6-5-11-11-11-6 0-11 5-11 11 0 6 5 11 11 11 6 0 11-5 11-11z m-1-1c0-6-5-11-11-11-6 0-11 5-11 11 0 6 5 11 11 11 6 0 11-5 11-11z m-1-1c0-6-5-11-11-11-6 0-11 5-11 11 0 6 5 11 11 11 6 0 11-5 11-11z m0-1c0-6-5-11-11-11-6 0-11 5-11 11 0 6 5 11 11 11 6 0 11-5 11-11z m-1-1c0-6-5-11-11-11-6 0-11 5-11 11 0 6 5 11 11 11 6 0 11-5 11-11z m-1-1c0-6-5-11-11-11-6 0-11 5-11 11 0 6 5 11 11 11 6 0 11-5 11-11z m-1-1c0-6-4-11-10-11-6 0-11 5-11 11 0 6 5 11 11 11 6 0 10-5 10-11z m0-1c0-6-5-11-11-11-6 0-11 5-11 11 0 6 5 11 11 11 6 0 11-5 11-11z m-1-1c0-6-5-11-11-11-6 0-11 5-11 11 0 6 5 11 11 11 6 0 11-5 11-11z m-1-1c0-6-4-11-10-11-7 0-11 5-11 11 0 6 4 11 11 11 6 0 10-5 10-11z m0-1c0-6-5-11-11-11-6 0-11 5-11 11 0 6 5 11 11 11 6 0 11-5 11-11z m-1-1c0-6-5-11-11-11-6 0-11 5-11 11 0 6 5 11 11 11 6 0 11-5 11-11z m-1-1c0-6-5-11-11-11-6 0-11 5-11 11 0 6 5 11 11 11 6 0 11-5 11-11z m0-1c0-6-5-11-11-11-6 0-11 5-11 11 0 6 5 11 11 11 6 0 11-5 11-11z m-1-1c0-6-5-11-11-11-6 0-11 5-11 11 0 6 5 11 11 11 6 0 11-5 11-11z m-1-1c0-6-5-11-11-11-6 0-11 5-11 11 0 6 5 11 11 11 6 0 11-5 11-11z m0-1c0-6-5-11-11-11-6 0-11 5-11 11 0 6 5 11 11 11 6 0 11-5 11-11z m-1-1c0-6-5-11-11-11-6 0-11 5-11 11 0 6 5 11 11 11 6 0 11-5 11-11z m-1-1c0-6-5-11-11-11-6 0-11 5-11 11 0 6 5 11 11 11 6 0 11-5 11-11z m0-1c0-6-5-11-11-11-6 0-11 5-11 11 0 6 5 11 11 11 6 0 11-5 11-11z m-1-1c0-6-5-11-11-11-6 0-11 5-11 11 0 6 5 11 11 11 6 0 11-5 11-11z m-1-1c0-6-5-10-11-10-6 0-11 4-11 10 0 6 5 11 11 11 6 0 11-5 11-11z m-1 0c0-7-4-11-10-11-6 0-11 4-11 11 0 5 5 10 11 10 6 0 10-5 10-10z m0-1c0-7-5-11-11-11-6 0-11 4-11 11 0 5 5 10 11 10 6 0 11-5 11-10z m-1-1c0-6-5-11-11-11-6 0-11 5-11 11 0 6 5 10 11 10 6 0 11-4 11-10z m-1-1c0-6-4-11-10-11-7 0-11 5-11 11 0 6 4 10 11 10 6 0 10-4 10-10z m0-1c0-6-5-11-11-11-6 0-11 5-11 11 0 6 5 11 11 11 6 0 11-5 11-11z m-1-1c0-6-5-11-11-11-6 0-11 5-11 11 0 6 5 11 11 11 6 0 11-5 11-11z m-1-1c0-6-4-11-11-11-6 0-10 5-10 11 0 6 4 11 10 11 7 0 11-5 11-11z m0-1c0-6-5-11-11-11-6 0-11 5-11 11 0 6 5 11 11 11 6 0 11-5 11-11z m-42 43c0-6-5-11-11-11-6 0-11 5-11 11 0 6 5 11 11 11 6 0 11-5 11-11z m0-1c0-6-5-11-11-11-6 0-11 5-11 11 0 6 5 11 11 11 6 0 11-5 11-11z m0 0c0-6-5-11-11-11-6 0-11 5-11 11 0 6 5 11 11 11 6 0 11-5 11-11z m1-1c0-6-5-11-11-11-6 0-11 5-11 11 0 6 5 11 11 11 6 0 11-5 11-11z m0 0c0-6-5-11-11-11-6 0-11 5-11 11 0 6 5 11 11 11 6 0 11-5 11-11z m1-1c0-6-5-10-11-10-6 0-11 4-11 10 0 7 5 11 11 11 6 0 11-4 11-11z m0 0c0-6-5-11-11-11-6 0-11 5-11 11 0 6 5 11 11 11 6 0 11-5 11-11z m1 0c0-6-5-11-11-11-6 0-11 5-11 11 0 6 5 11 11 11 6 0 11-5 11-11z m0-1c0-6-5-11-11-11-6 0-11 5-11 11 0 6 5 11 11 11 6 0 11-5 11-11z m0 0c0-6-5-11-11-11-6 0-11 5-11 11 0 6 5 11 11 11 6 0 11-5 11-11z m1-1c0-6-5-11-11-11-6 0-11 5-11 11 0 6 5 11 11 11 6 0 11-5 11-11z m0 0c0-6-5-11-11-11-6 0-11 5-11 11 0 6 5 11 11 11 6 0 11-5 11-11z m1 0c0-7-5-11-11-11-6 0-11 4-11 11 0 6 5 10 11 10 6 0 11-4 11-10z m0-1c0-6-5-11-11-11-6 0-11 5-11 11 0 6 5 11 11 11 6 0 11-5 11-11z m0 0c0-6-5-11-11-11-6 0-11 5-11 11 0 6 5 11 11 11 7 0 11-5 11-11z m1-1c0-6-5-11-11-11-6 0-11 5-11 11 0 6 5 11 11 11 6 0 11-5 11-11z m0 0c0-6-5-11-11-11-6 0-11 5-11 11 0 6 5 11 11 11 6 0 11-5 11-11z m1-1c0-6-5-11-11-11-6 0-11 5-11 11 0 6 5 11 11 11 6 0 11-5 11-11z m0 0c0-6-5-11-11-11-6 0-11 5-11 11 0 6 5 11 11 11 6 0 11-5 11-11z m0 0c0-7-4-11-10-11-6 0-11 4-11 11 0 6 5 10 11 10 6 0 10-4 10-10z m1-1c0-6-5-11-11-11-6 0-11 5-11 11 0 6 5 11 11 11 6 0 11-5 11-11z m0 0c0-6-5-11-11-11-6 0-11 5-11 11 0 6 5 11 11 11 6 0 11-5 11-11z m1-1c0-6-5-11-11-11-6 0-11 5-11 11 0 6 5 11 11 11 6 0 11-5 11-11z m0 0c0-6-5-11-11-11-6 0-11 5-11 11 0 6 5 11 11 11 6 0 11-5 11-11z m1-1c0-6-5-11-11-11-6 0-11 5-11 11 0 6 5 11 11 11 6 0 11-5 11-11z m0 0c0-6-5-11-11-11-6 0-11 5-11 11 0 6 5 11 11 11 6 0 11-5 11-11z m0 0c0-7-4-11-11-11-6 0-10 4-10 11 0 6 4 11 10 11 7 0 11-5 11-11z m1-1c0-6-5-11-11-11-6 0-11 5-11 11 0 6 5 11 11 11 6 0 11-5 11-11z m0 0c0-6-5-11-11-11-6 0-11 5-11 11 0 6 5 11 11 11 6 0 11-5 11-11z m1-1c0-6-5-11-11-11-6 0-11 5-11 11 0 6 5 11 11 11 6 0 11-5 11-11z m0 0c0-6-5-11-11-11-6 0-11 5-11 11 0 6 5 11 11 11 6 0 11-5 11-11z m1-1c0-6-5-11-11-11-6 0-11 5-11 11 0 6 5 11 11 11 6 0 11-5 11-11z m0 0c0-6-5-11-11-11-6 0-11 5-11 11 0 6 5 11 11 11 6 0 11-5 11-11z m0 0c0-6-5-11-11-11-6 0-11 5-11 11 0 6 5 11 11 11 6 0 11-5 11-11z m1-1c0-6-5-11-11-11-6 0-11 5-11 11 0 6 5 11 11 11 6 0 11-5 11-11z m0 0c0-6-5-11-11-11-6 0-11 5-11 11 0 6 5 11 11 11 6 0 11-5 11-11z m1-1c0-6-5-11-11-11-6 0-11 5-11 11 0 6 5 11 11 11 6 0 11-5 11-11z m0 0c0-6-5-11-11-11-6 0-11 5-11 11 0 6 5 11 11 11 6 0 11-5 11-11z m0-1c0-6-4-10-11-10-6 0-10 4-10 10 0 7 4 11 10 11 7 0 11-4 11-11z m1 0c0-6-5-11-11-11-6 0-11 5-11 11 0 6 5 11 11 11 6 0 11-5 11-11z m0 0c0-6-5-11-11-11-6 0-11 5-11 11 0 6 5 11 11 11 6 0 11-5 11-11z m1-1c0-6-5-11-11-11-6 0-11 5-11 11 0 6 5 11 11 11 6 0 11-5 11-11z m0 0c0-6-5-11-11-11-6 0-11 5-11 11 0 6 5 11 11 11 6 0 11-5 11-11z m1-1c0-6-5-11-11-11-6 0-11 5-11 11 0 6 5 11 11 11 6 0 11-5 11-11z m0 0c0-6-5-11-11-11-6 0-11 5-11 11 0 6 5 11 11 11 6 0 11-5 11-11z m0-1c0-6-5-10-11-10-6 0-11 4-11 10 0 7 5 11 11 11 6 0 11-4 11-11z m1 0c0-6-5-11-11-11-6 0-11 5-11 11 0 6 5 11 11 11 6 0 11-5 11-11z m0 0c0-6-5-11-11-11-6 0-11 5-11 11 0 6 5 11 11 11 6 0 11-5 11-11z m1-1c0-6-5-11-11-11-6 0-11 5-11 11 0 6 5 11 11 11 6 0 11-5 11-11z m0 0c0-6-5-11-11-11-6 0-11 5-11 11 0 6 5 11 11 11 6 0 11-5 11-11z m0-1c0-6-4-11-11-11-6 0-10 5-10 11 0 6 4 11 10 11 7 0 11-5 11-11z m1 0c0-6-5-11-11-11-6 0-11 5-11 11 0 6 5 11 11 11 6 0 11-5 11-11z m0 0c0-7-5-11-11-11-6 0-11 4-11 11 0 6 5 10 11 10 6 0 11-4 11-10z m1-1c0-6-5-11-11-11-6 0-11 5-11 11 0 6 5 11 11 11 6 0 11-5 11-11z m0 0c0-6-5-11-11-11-6 0-11 5-11 11 0 6 5 11 11 11 6 0 11-5 11-11z m1-1c0-6-5-11-11-11-6 0-11 5-11 11 0 6 5 11 11 11 6 0 11-5 11-11z m0 0c0-6-5-11-11-11-6 0-11 5-11 11 0 6 5 11 11 11 6 0 11-5 11-11z m0-1c0-6-5-11-11-11-6 0-11 5-11 11 0 6 5 11 11 11 6 0 11-5 11-11z m1 0c0-6-5-11-11-11-6 0-11 5-11 11 0 6 5 11 11 11 6 0 11-5 11-11z m0 0c0-7-5-11-11-11-6 0-11 4-11 11 0 6 5 10 11 10 6 0 11-4 11-10z m1-1c0-6-5-11-11-11-6 0-11 5-11 11 0 6 5 11 11 11 6 0 11-5 11-11z m0 0c0-6-5-11-11-11-6 0-11 5-11 11 0 6 5 11 11 11 6 0 11-5 11-11z m0-1c0-6-4-11-11-11-6 0-10 5-10 11 0 6 4 11 10 11 7 0 11-5 11-11z m1 0c0-6-5-11-11-11-6 0-11 5-11 11 0 6 5 11 11 11 6 0 11-5 11-11z m0-1c0-6-5-11-11-11-6 0-11 5-11 11 0 6 5 11 11 11 6 0 11-5 11-11z m1 0c0-6-5-11-11-11-6 0-11 5-11 11 0 6 5 11 11 11 6 0 11-5 11-11z m0 0c0-6-5-11-11-11-6 0-11 5-11 11 0 6 5 11 11 11 6 0 11-5 11-11z m0-1c0-6-4-11-10-11-6 0-11 5-11 11 0 6 5 11 11 11 6 0 10-5 10-11z m1 0c0-6-5-11-11-11-6 0-11 5-11 11 0 6 5 11 11 11 6 0 11-5 11-11z m0-1c0-6-5-11-11-11-6 0-11 5-11 11 0 6 5 11 11 11 6 0 11-5 11-11z m1 0c0-6-5-11-11-11-6 0-11 5-11 11 0 6 5 11 11 11 6 0 11-5 11-11z m0-1c0-6-5-11-11-11-6 0-11 5-11 11 0 6 5 11 11 11 6 0 11-5 11-11z m1 0c0-6-5-11-11-11-6 0-11 5-11 11 0 6 5 11 11 11 6 0 11-5 11-11z m0 0c0-6-5-11-11-11-6 0-11 5-11 11 0 6 5 11 11 11 6 0 11-5 11-11z m0-1c0-6-4-11-11-11-6 0-10 5-10 11 0 6 4 11 10 11 7 0 11-5 11-11z m1 0c0-6-5-11-11-11-6 0-11 5-11 11 0 6 5 11 11 11 6 0 11-5 11-11z m0-1c0-6-5-11-11-11-6 0-11 5-11 11 0 6 5 11 11 11 6 0 11-5 11-11z m1 0c0-6-5-11-11-11-6 0-11 5-11 11 0 6 5 11 11 11 6 0 11-5 11-11z m0-1c0-6-5-10-11-10-6 0-11 4-11 10 0 6 5 11 11 11 6 0 11-5 11-11z m1 0c0-6-5-11-11-11-6 0-11 5-11 11 0 6 5 11 11 11 6 0 11-5 11-11z m0 0c0-6-5-11-11-11-6 0-11 5-11 11 0 6 5 11 11 11 6 0 11-5 11-11z m0-1c0-6-5-11-11-11-6 0-11 5-11 11 0 6 5 11 11 11 6 0 11-5 11-11z m1 0c0-6-5-11-11-11-6 0-11 5-11 11 0 6 5 11 11 11 6 0 11-5 11-11z m0-1c0-6-5-11-11-11-6 0-11 5-11 11 0 6 5 11 11 11 6 0 11-5 11-11z m1 0c0-6-5-11-11-11-6 0-11 5-11 11 0 6 5 11 11 11 6 0 11-5 11-11z m0 0c0-7-5-11-11-11-6 0-11 4-11 11 0 5 5 10 11 10 6 0 11-5 11-10z m0-1c0-6-4-11-10-11-7 0-11 5-11 11 0 6 4 11 11 11 6 0 10-5 10-11z m1 0c0-6-5-11-11-11-6 0-11 5-11 11 0 6 5 11 11 11 6 0 11-5 11-11z m0-1c0-6-5-11-11-11-6 0-11 5-11 11 0 6 5 11 11 11 6 0 11-5 11-11z m1 0c0-6-5-11-11-11-6 0-11 5-11 11 0 6 5 11 11 11 6 0 11-5 11-11z m0-1c0-6-5-11-11-11-6 0-11 5-11 11 0 6 5 11 11 11 6 0 11-5 11-11z m0 0c0-6-4-11-10-11-6 0-11 5-11 11 0 6 5 11 11 11 6 0 10-5 10-11z m1 0c0-7-5-11-11-11-6 0-11 4-11 11 0 5 5 10 11 10 6 0 11-5 11-10z m0-1c0-6-5-11-11-11-6 0-11 5-11 11 0 6 5 11 11 11 6 0 11-5 11-11z m1 0c0-6-5-11-11-11-6 0-11 5-11 11 0 6 5 11 11 11 6 0 11-5 11-11z m0-1c0-6-5-11-11-11-6 0-11 5-11 11 0 6 5 11 11 11 6 0 11-5 11-11z m1 0c0-6-5-11-11-11-6 0-11 5-11 11 0 6 5 11 11 11 6 0 11-5 11-11z m0-1c0-6-5-11-11-11-6 0-11 5-11 11 0 6 5 11 11 11 6 0 11-5 11-11z m0 0c0-6-4-11-10-11-7 0-11 5-11 11 0 6 4 11 11 11 6 0 10-5 10-11z m1 0c0-6-5-11-11-11-6 0-11 5-11 11 0 6 5 10 11 10 6 0 11-4 11-10z m0-1c0-6-5-11-11-11-6 0-11 5-11 11 0 6 5 11 11 11 6 0 11-5 11-11z m1 0c0-6-5-11-11-11-6 0-11 5-11 11 0 6 5 11 11 11 6 0 11-5 11-11z m85 427l-360 0c-30 0-54-24-54-54l0-392c0-30 24-54 54-54l360 0c30 0 54 24 54 54l0 392c0 30-24 54-54 54z m32-446c0-18-14-32-32-32l-360 0c-18 0-32 14-32 32l0 392c0 18 14 32 32 32l360 0c18 0 32-14 32-32l0-392z"/>
<glyph glyph-name="irmaos" unicode="&#73;" d="M170 167l-106 0c-25 0-45-20-45-45l0-62c0-24 20-44 45-44l106 0c25 0 45 20 45 44l0 62c0 25-20 45-45 45z m27-107c0-15-12-27-27-27l-106 0c-15 0-27 12-27 27l0 62c0 15 12 27 27 27l106 0c15 0 27-12 27-27z m258 107l-106 0c-25 0-45-20-45-45l0-62c0-24 20-44 45-44l106 0c25 0 45 20 45 44l0 62c0 25-20 45-45 45z m27-107c0-15-12-27-27-27l-106 0c-15 0-27 12-27 27l0 62c0 15 12 27 27 27l106 0c15 0 27-12 27-27z m-276 285l107 0c24 0 45 20 45 45l0 62c0 24-21 44-45 44l-107 0c-24 0-44-20-44-44l0-62c0-25 20-45 44-45z m187-107l0-44c0-5 4-9 9-9 5 0 9 4 9 9l0 44c0 15-12 27-27 27l-115 0 0 53c0 5-5 9-9 9-5 0-9-4-9-9l0-53-116 0c-15 0-27-12-27-27l0-44c0-5 4-9 9-9 5 0 9 4 9 9l0 44c0 5 4 9 9 9l249 0c5 0 9-4 9-9z"/>
<glyph glyph-name="link-2" unicode="&#74;" d="M114 26c-23 0-45 8-62 26-34 34-34 89 0 123l103 104c34 34 90 34 124 0 9-9 15-19 20-30 2-4-1-9-5-11-4-2-9 1-11 5-3 9-9 17-16 24-27 28-72 28-100 0l-103-104c-28-27-28-72 0-100 27-27 72-27 100 1l103 103c5 5 9 10 12 15 5 10 9 22 9 34 0 5 4 8 8 8 5 0 9-4 9-8 0-15-4-29-12-42-3-7-8-13-14-19l-103-103c-17-17-40-26-62-26z m181 181c-24 0-45 9-62 26-34 34-34 90 0 124l104 103c16 17 38 26 61 26 24 0 46-9 62-26 34-34 34-89 0-123l-103-104c-17-17-39-26-62-26z m103 262c-18 0-36-7-50-21l-103-103c-28-28-28-73 0-100 13-13 31-21 50-21l0-8 0 8c19 0 36 8 50 21l103 104c28 27 28 72 0 99-13 14-31 21-50 21z"/>
<glyph glyph-name="link-3" unicode="&#75;" d="M256 15c-70 0-127 57-127 127l0 151 254 0 0-151c0-70-57-127-127-127z m-115 266l0-139c0-64 52-115 115-115 63 0 115 51 115 115l0 139z m62-213c-28 18-44 49-44 82l0 66 12 0 0-66c0-29 15-56 39-72z m55-17c-12 0-24 2-36 6l5 12c10-4 20-6 31-6z m-8 446l12 0 0-69-12 0z m6-186c-14 0-24 11-24 24l0 38c0 13 10 24 24 24 13 0 24-11 24-24l0-38c0-13-11-24-24-24z m0 73c-7 0-12-5-12-11l0-38c0-7 5-12 12-12 6 0 11 5 11 12l0 38c0 6-5 11-11 11z m6-103l-133 0 0 26c0 70 57 127 127 127l6 0 0-50-7 0c-6 0-11-5-11-11l0-38c0-6 5-12 11-12 1 0 1 0 1 0l6 1 0-43z m-121 12l109 0 0 19c-11 2-18 12-18 23l0 38c0 11 7 21 18 23l0 26c-60-3-109-54-109-115z m242-12l-133 0 0 42 6 0c6 1 11 6 11 12l0 38c0 6-5 11-11 11l-6 1 0 49 6 0c70 0 127-57 127-127l0-26z m-121 12l109 0 0 14c0 61-48 112-109 115l0-26c10-3 18-12 18-23l0-38c0-11-8-20-18-23z"/>
<glyph glyph-name="link-4" unicode="&#76;" d="M256 22c-129 0-234 105-234 234 0 129 105 234 234 234 129 0 234-105 234-234 0-129-105-234-234-234z m0 451c-120 0-217-97-217-217 0-120 97-217 217-217 120 0 217 97 217 217 0 120-97 217-217 217z m-114-340c-2 0-4 1-6 3-3 2-3 7-1 10l86 143c0 1 1 2 2 2l143 87c4 1 8 1 10-2 3-2 4-7 2-10l-86-143c-1-1-2-2-3-3l-143-86c-1 0-3-1-4-1z m92 145l-68-112 113 68 67 112z m22 136c-4 0-8 4-8 8l0 38c0 4 4 8 8 8 5 0 8-4 8-8l0-38c0-4-3-8-8-8z m0-370c-4 0-8 4-8 8l0 38c0 4 4 8 8 8 5 0 8-4 8-8l0-38c0-4-3-8-8-8z m204 204l-38 0c-4 0-8 3-8 8 0 5 4 8 8 8l38 0c4 0 8-3 8-8 0-5-4-8-8-8z m-370 0l-38 0c-4 0-8 3-8 8 0 5 4 8 8 8l38 0c5 0 8-3 8-8 0-5-4-8-8-8z"/>
<glyph glyph-name="link-5" unicode="&#77;" d="M256 494c-131 0-238-107-238-238 0-131 107-238 238-238 131 0 238 107 238 238 0 131-107 238-238 238z m176-373c-7 6-28 20-61 31 7 29 11 62 12 96l95 0c-2-48-19-91-46-127z m-398 127l95 0c1-34 5-67 13-96-34-11-54-25-62-31-27 36-44 79-46 127z m46 142c7-5 27-19 61-31-7-29-11-61-12-95l-95 0c2 47 19 91 46 126z m184-48c36 0 67 5 92 12 6-27 10-58 11-90l-103 0z m0 16l0 119c37-5 69-47 87-107-23-7-52-12-87-12z m-16 119l0-119c-35 0-64 5-87 12 18 60 50 102 87 107z m0-135l0-78-103 0c1 32 5 63 12 90 24-7 55-12 91-12z m-103-94l103 0 0-78c-36-1-67-6-91-13-7 27-11 58-12 91z m103-94l0-119c-37 5-69 46-87 107 23 6 52 11 87 12z m16-119l0 119c35-1 64-6 87-13-18-60-50-101-87-106z m0 135l0 78 103 0c-1-33-5-64-12-91-24 7-55 12-91 13z m119 94c-1 34-5 66-12 95 34 12 54 26 62 31 27-35 43-79 45-126l-95 0z m40 138c-7-4-25-17-56-28-13 42-32 76-56 97 44-11 82-36 112-69z m-222 69c-23-21-43-54-55-97-31 11-50 24-56 29 29 32 67 57 111 68z m-111-362c7 5 25 17 56 28 13-42 32-75 55-96-44 11-82 35-111 68z m221-68c23 21 43 54 55 96 31-11 49-23 56-28-29-33-67-57-111-68z"/>
<glyph glyph-name="link-6" unicode="&#78;" d="M256 13c-134 0-242 109-242 243 0 134 108 243 242 243 134 0 243-109 243-243 0-134-109-243-243-243z m0 472c-126 0-229-103-229-229 0-126 103-229 229-229 126 0 229 103 229 229 0 126-103 229-229 229z m-53-463c-14 33-26 68-34 103l14 3c8-34 19-68 33-100z m-47 192c-7 94 10 189 47 276l13-6c-37-84-53-177-46-269z m153-192l-12 6c36 85 52 179 45 271l14 1c7-95-9-191-47-278z m20 366c-8 33-19 65-32 96l12 6c14-32 25-65 33-99z m-301-92l-6 13c87 38 183 54 278 47l-1-14c-92 7-186-9-271-46z m456 0c-31 14-63 25-96 32l3 14c34-8 67-19 99-33z m-359-127c-35 8-70 20-103 34l6 13c32-14 66-26 100-33z m131-14c-14 0-28 0-41 1l1 14c91-7 184 9 268 46l6-13c-74-32-154-48-234-48z m88 137c-28 0-52 23-52 52 0 28 24 51 52 51 29 0 52-23 52-51 0-29-23-52-52-52z m0 90c-21 0-38-17-38-38 0-21 17-38 38-38 21 0 38 17 38 38 0 21-17 38-38 38z m-173-263c-28 0-52 23-52 52 0 28 24 51 52 51 28 0 52-23 52-51 0-29-24-52-52-52z m0 90c-21 0-38-17-38-38 0-21 17-38 38-38 21 0 38 17 38 38 0 21-17 38-38 38z"/>
<glyph glyph-name="link-7" unicode="&#79;" d="M490 114l-467 0c-2 0-4 0-5 2-2 2-8 11-9 16-2 5-1 18 0 22 0 2 2 5 5 5l210 0c3 0 6-3 6-6l0-5 52 0 0 5c0 3 3 6 6 6l210 0c3 0 5-3 6-5 0-4 1-17-1-22-1-5-7-14-9-16-1-2-3-2-4-2z m-465 11l462 0c3 4 5 8 6 10 0 1 0 7 0 13l-200 0 0-6c0-3-2-5-5-5l-64 0c-3 0-5 2-5 5l0 6-200 0c0-6 0-12 0-13 1-2 4-6 6-10z m423 23l-30 0c-3 0-5 2-5 5l0 205-314 0 0-205c0-3-2-5-5-5l-30 0c-3 0-5 2-5 5l0 223c0 12 10 22 22 22l350 0c12 0 23-10 23-22l0-223c0-3-3-5-6-5z m-24 11l19 0 0 217c0 6-6 11-12 11l-350 0c-6 0-11-5-11-11l0-217 18 0 0 204c0 3 3 6 6 6l324 0c3 0 6-3 6-6z m-154 159l8-8-65-65-8 8z m58 3l8-8-123-122-8 8z"/>
<glyph glyph-name="link-8" unicode="&#80;" d="M359 21l-205 0c-17 0-31 14-31 31l0 52 266 0 0-52c0-17-13-31-30-31z m-223 69l0-38c0-10 8-17 18-17l205 0c9 0 17 7 17 17l0 38z m253 326l-266 0 0 44c0 17 14 31 31 31l205 0c17 0 30-14 30-31z m-253 14l240 0 0 30c0 10-8 17-17 17l-205 0c-10 0-18-7-18-17l0-30z m253-340l-266 0 0 340 266 0z m-253 14l240 0 0 312-240 0z m95-35l51 0 0-14-51 0z m-3 390l16 0 0-13-16 0z m25 0l45 0 0-13-45 0z m10-135l9-10-74-74-10 9z m-65-147l-10 9 142 142 9-10z"/>
<glyph glyph-name="link-9" unicode="&#81;" d="M487 148l-462 0c-4 0-7 3-7 6l0 57c0 3 3 6 7 6l462 0c4 0 7-3 7-6l0-57c0-3-3-6-7-6z m-456 12l450 0 0 45-450 0z m456 45l-462 0c-4 0-7 2-7 6l0 231c0 4 3 7 7 7l462 0c4 0 7-3 7-7l0-231c0-4-3-6-7-6z m-456 12l450 0 0 219-450 0z m431-12l-412 0 0 211 412 0z m-400 12l388 0 0 187-388 0z m317-154l-246 0c-4 0-6 3-6 7l0 23c0 3 2 6 6 6l57 0 11 56c1 3 3 5 6 5l98 0c3 0 5-2 6-5l11-56 57 0c4 0 7-3 7-6l0-23c0-4-3-7-7-7z m-240 13l234 0 0 10-56 0c-3 0-6 2-6 5l-11 57-87 0-12-57c0-3-3-5-6-5l-56 0z m56 23l122 0 0-13-122 0z m38 89l48 0 0-13-48 0z m213 0l10 0 0-13-10 0z m-26 0l11 0 0-13-11 0z m-216 106l-9 9 70 70 9-9z m123 83l9-9-132-132-9 8z"/>
<glyph glyph-name="link-10" unicode="&#82;" d="M443 308c-30 0-52 39-52 65 0 29 23 52 52 52 29 0 52-23 52-52 0-26-22-65-52-65z m0 102c-20 0-37-17-37-37 0-22 18-50 37-50 19 0 37 28 37 50 0 20-17 37-37 37z m49-237l-19 0c-4 0-7 3-7 7 0 5 3 8 7 8l12 0 5 77c-6 3-22 10-47 10-34 0-51-12-51-12-3-2-6-2-9 0l-74 53c-4 3-5 7-2 11 2 3 7 4 10 1l71-50c8 4 26 12 55 12 40 0 59-15 60-15 2-2 3-4 3-7l-7-88c0-4-4-7-7-7z m-30-104l-38 0c-4 0-7 3-8 6l-11 103c0 4 3 8 7 8 4 1 8-2 8-6l11-96 24 0 11 96c0 4 4 7 8 6 4 0 7-4 7-8l-11-103c-1-3-4-6-8-6z m-228 0c-2 0-5 1-6 3l-52 90-52-90c-2-3-6-4-10-2-4 2-5 6-3 10l58 101c2 2 4 4 7 4 3 0 5-2 6-4l59-101c2-4 1-8-3-10-1-1-3-1-4-1z m104 104l-324 0c-4 0-8 3-8 7l0 275c0 4 4 7 8 7l324 0c4 0 8-3 8-7l0-100c0-4-4-7-8-7-4 0-8 3-8 7l0 92-309 0 0-259 309 0 0 64c0 4 4 7 8 7 4 0 8-3 8-7l0-72c0-4-4-7-8-7z m-162-123c-4 0-8 3-8 7l0 120c0 4 4 8 8 8 4 0 8-4 8-8l0-120c0-4-4-7-8-7z m154 360l-316 0c-4 0-8 3-8 7 0 5 4 8 8 8l316 0c4 0 7-3 7-8 0-4-3-7-7-7z m-277-144c-3 0-5 2-7 4-2 4-1 8 3 10l41 24c1 1 4 1 6 0l41-16 39 72c1 2 3 4 6 4 3 0 5-1 7-3l36-56 64 79c3 4 8 4 11 2 3-3 4-8 1-11l-71-88c-1-2-4-3-6-3-2 0-5 2-6 4l-35 54-36-67c-2-3-6-5-10-3l-43 17-38-22c-1 0-2-1-3-1z"/>
<glyph glyph-name="link-11" unicode="&#83;" d="M499 33l-80 19 17-19-17-20z m-63-6l-403 0c-4 0-6 2-6 6 0 3 2 5 6 5l403 0c3 0 6-2 6-5 0-4-3-6-6-6z m-403 472l-20-80 20 17 19-17z m0-472c-4 0-6 2-6 6l0 403c0 3 2 6 6 6 3 0 6-3 6-6l0-403c0-4-3-6-6-6z m71 110c-19 0-34 15-34 35 0 19 15 35 34 35 19 0 34-16 34-35 0-20-15-35-34-35z m0 58c-12 0-22-10-22-23 0-13 10-23 22-23 13 0 23 10 23 23 0 13-10 23-23 23z m173-122c-19 0-34 15-34 35 0 19 15 35 34 35 19 0 34-16 34-35 0-20-15-35-34-35z m0 58c-12 0-22-10-22-23 0-13 10-24 22-24 12 0 22 11 22 24 0 13-10 23-22 23z m137 190c-19 0-35 16-35 35 0 20 16 36 35 36 18 0 34-16 34-36 0-19-16-35-34-35z m0 59c-13 0-23-11-23-24 0-12 10-23 23-23 12 0 22 11 22 23 0 13-10 24-22 24z m-381-353c-1 0-2 0-3 0-3 2-4 5-3 8l56 115c2 3 5 4 8 3 3-2 4-5 3-8l-56-115c-1-2-3-3-5-3z m218 86c-1 0-2 0-2 0l-120 43c-4 1-5 4-4 7 1 3 5 5 7 4l121-43c3-1 4-4 3-8-1-2-3-3-5-3z m42 13c-1 0-2 0-3 1-3 1-4 5-3 8l104 201c1 3 5 4 8 3 3-2 4-5 2-8l-103-202c-1-2-3-3-5-3z"/>
<glyph glyph-name="link-12" unicode="&#84;" d="M116 306c-50 0-91 41-91 92 0 50 41 91 91 91 51 0 92-41 92-91 0-51-41-92-92-92z m0 165c-41 0-74-33-74-73 0-41 33-74 74-74 41 0 74 33 74 74 0 40-33 73-74 73z m83-82l-92 0 0 91 18 0 0-74 74 0z m-75 13l39-73-16-8-39 72z m-17-2l18-5-20-80-18 5z m-6-377l-65 0 0 65 65 0z m-47 18l30 0 0 29-30 0z m142-18l-65 0 0 136 65 0 0-136z m-47 18l29 0 0 100-29 0z m141-18l-65 0 0 206 65 0z m-47 18l29 0 0 171-29 0z m142-18l-65 0 0 301 65 0z m-48 18l30 0 0 265-30 0z m142-18l-65 0 0 372 65 0z m-47 18l29 0 0 336-29 0z m-392 103l-13 12 62 62 70 0 47 70 46 0 47 95 50 0 127 104 12-14-133-108-45 0-47-94-48 0-47-71-72 0z"/>
<glyph glyph-name="link-13" unicode="&#85;" d="M427 361l-342 0c-3 0-6 3-6 6l0 118c0 4 3 7 6 7l342 0c3 0 6-3 6-7l0-118c0-3-3-6-6-6z m-335 13l329 0 0 105-329 0z m273 21c-17 0-31 14-31 31 0 17 13 31 31 31 17 0 30-14 30-31 0-17-13-31-30-31z m0 50c-11 0-19-8-19-19 0-10 8-18 19-18 10 0 18 8 18 18 0 11-8 19-18 19z m-237-12l29 0 0-13-29 0z m43 0l28 0 0-13-28 0z m42 0l29 0 0-13-29 0z m186-107l-286 0c-4 0-6 3-6 6l0 35c0 4 2 7 6 7l286 0c4 0 7-3 7-7l0-35c0-3-3-6-7-6z m-280 13l274 0 0 22-274 0z m308-131l-342 0c-3 0-6 3-6 6l0 118c0 4 3 7 6 7l342 0c3 0 6-3 6-7l0-118c0-3-3-6-6-6z m-335 13l329 0 0 105-329 0z m273 22c-17 0-31 13-31 30 0 17 13 31 31 31 17 0 30-14 30-31 0-17-13-30-30-30z m0 49c-11 0-19-8-19-19 0-10 8-18 19-18 10 0 18 8 18 18 0 11-8 19-18 19z m-237-12l29 0 0-13-29 0z m43 0l28 0 0-13-28 0z m42 0l29 0 0-13-29 0z m186-107l-286 0c-4 0-6 3-6 7l0 34c0 4 2 7 6 7l286 0c4 0 7-3 7-7l0-34c0-4-3-7-7-7z m-280 13l274 0 0 22-274 0z m308-131l-342 0c-3 0-6 3-6 7l0 118c0 3 3 6 6 6l342 0c3 0 6-3 6-6l0-118c0-4-3-7-6-7z m-335 13l329 0 0 105-329 0z m273 22c-17 0-31 14-31 31 0 17 13 30 31 30 17 0 30-13 30-30 0-17-13-31-30-31z m0 49c-11 0-19-8-19-18 0-11 8-19 19-19 10 0 18 8 18 19 0 10-8 18-18 18z m-237-12l29 0 0-13-29 0z m43 0l28 0 0-13-28 0z m42 0l29 0 0-13-29 0z m186-107l-286 0c-4 0-6 3-6 7l0 35c0 3 2 6 6 6l286 0c4 0 7-3 7-6l0-35c0-4-3-7-7-7z m-280 13l274 0 0 22-274 0z"/>
<glyph glyph-name="link-14" unicode="&#86;" d="M374 381l-239 0 0 116 239 0 0-116z m-220 19l201 0 0 79-201 0z m220-165l-239 0 0 116 239 0 0-116z m-220 18l201 0 0 79-201 0z m220-165l-239 0 0 116 239 0 0-116z m-220 18l201 0 0 80-201 0z m91-9l19 0 0-73-19 0z m0 147l19 0 0-49-19 0z m0 146l19 0 0-48-19 0z m-64 58l67 0 0-18-67 0z m132-34c-14 0-26 11-26 25 0 14 12 26 26 26 14 0 25-12 25-26 0-14-11-25-25-25z m0 32c-4 0-7-3-7-7 0-4 3-7 7-7 4 0 7 3 7 7 0 4-3 7-7 7z m-132-144l67 0 0-18-67 0z m132-35c-14 0-26 11-26 25 0 14 12 26 26 26 14 0 25-12 25-26 0-14-11-25-25-25z m0 32c-4 0-7-3-7-7 0-4 3-7 7-7 4 0 7 3 7 7 0 4-3 7-7 7z m-132-144l67 0 0-18-67 0z m132-35c-14 0-26 12-26 26 0 14 12 25 26 25 14 0 25-11 25-25 0-14-11-26-25-26z m0 33c-4 0-7-3-7-7 0-4 3-8 7-8 4 0 7 4 7 8 0 4-3 7-7 7z m-291-105l217 0 0-18-217 0z m251 0l217 0 0-18-217 0z m-1-8c0-9-7-16-16-16-9 0-17 7-17 16 0 9 8 16 17 16 9 0 16-7 16-16z m-16-25c-15 0-26 11-26 25 0 14 11 26 26 26 14 0 25-12 25-26 0-14-11-25-25-25z m0 32c-4 0-8-3-8-7 0-4 4-7 8-7 3 0 7 3 7 7 0 4-4 7-7 7z"/>
<glyph glyph-name="link-15" unicode="&#87;" d="M256 164c-50 0-91 42-91 92 0 50 41 91 91 91 51 0 91-41 91-91 0-50-40-92-91-92z m0 166c-41 0-74-33-74-74 0-41 33-74 74-74 41 0 74 33 74 74 0 41-33 74-74 74z m0-118c-24 0-44 20-44 44 0 24 20 44 44 44 24 0 44-20 44-44 0-24-20-44-44-44z m0 71c-15 0-26-12-26-27 0-15 11-27 26-27 15 0 27 12 27 27 0 15-12 27-27 27z m0 118c-24 0-44 19-44 44 0 24 20 44 44 44 24 0 44-20 44-44 0-25-20-44-44-44z m0 70c-15 0-26-12-26-26 0-15 11-27 26-27 15 0 27 12 27 27 0 14-12 26-27 26z m-201-94c-17 0-32 15-32 32 0 18 15 33 32 33 18 0 33-15 33-33 0-17-15-32-33-32z m0 47c-8 0-14-6-14-15 0-8 6-14 14-14 9 0 15 6 15 14 0 9-6 15-15 15z m36-189c-25 0-44 20-44 45 0 24 19 44 44 44 24 0 44-20 44-44 0-25-20-45-44-45z m0 71c-15 0-27-12-27-26 0-15 12-27 27-27 15 0 26 12 26 27 0 14-11 26-26 26z m342-184c-31 0-56 25-56 56 0 31 25 56 56 56 31 0 56-25 56-56 0-31-25-56-56-56z m0 95c-21 0-38-18-38-39 0-21 17-38 38-38 21 0 38 17 38 38 0 21-17 39-38 39z m12 113c-25 0-44 20-44 44 0 24 19 44 44 44 24 0 44-20 44-44 0-24-20-44-44-44z m0 71c-15 0-27-12-27-27 0-15 12-27 27-27 15 0 26 12 26 27 0 15-11 27-26 27z m-366-378c-18 0-32 15-32 32 0 18 14 33 32 33 18 0 33-15 33-33 0-17-15-32-33-32z m0 47c-8 0-15-6-15-15 0-8 7-14 15-14 8 0 15 6 15 14 0 9-7 15-15 15z m130-12c-24 0-44 20-44 45 0 24 20 44 44 44 24 0 44-20 44-44 0-25-20-45-44-45z m0 71c-15 0-27-12-27-26 0-15 12-27 27-27 15 0 26 12 26 27 0 14-11 26-26 26z m130-106c-18 0-33 15-33 32 0 18 15 33 33 33 18 0 32-15 32-33 0-17-14-32-32-32z m0 47c-9 0-15-6-15-15 0-8 6-14 15-14 8 0 14 6 14 14 0 9-6 15-14 15z m-147 237l-121 83 10 15 121-84z m55 102l18 0 0-70-18 0z m84-118l-8 15 91 52 9-15z m7-55l56-33-9-15-56 32z m-46-54l43-103-16-7-43 103z m-73-1l17-5-13-41-17 6z m-29 23l14-11-106-123-14 11z m-64 77l49-4-1-18-49 4z"/>
<glyph glyph-name="link-16" unicode="&#88;" d="M419 13l-2 0c-71 0-105 37-105 113l0 5-38 38 11 11 43-43 0-11c0-66 27-96 87-97l4 2-46 46 60 60 46-46 2 4c0 61-30 87-97 87l-11 0-67 67 11 12 63-62 4 0c77 0 114-35 114-105l0-2-14-28-51 50-37-37 51-50z m-250 261l-38 38-5 0c-76 0-113 34-113 105l0 2 14 27 51-50 37 37-51 51 28 13 2 0c70 0 105-37 105-113l0-4 62-63-11-11-67 67 0 11c0 67-27 97-87 97l-5-2 46-46-59-60-47 46-2-4c1-60 31-87 97-87l11 0 43-43z m-72-261l-23 0-61 61 0 23 178 178 84-85z m-16 16l9 0 162 161-61 62-162-162 0-9z m174 170c-2 0-4 0-5 2-4 3-4 8 0 11l18 19-37 37-19-19c-3-3-8-3-11 0-3 4-3 9 0 12l30 30 60-60-30-30c-2-2-4-2-6-2z m16 40c-2 0-4 1-5 2-3 3-3 9 0 12l164 164 22 0 28 55-8 8-55-28 0-23-164-163c-3-4-8-4-12 0-3 3-3 8 0 11l160 159 0 26 74 37 24-24-37-74-26 0-159-160c-1-1-4-2-6-2z m-210-162c-2 0-4 1-5 3-4 3-4 8 0 11l129 129c3 4 8 4 11 0 4-3 4-8 0-11l-129-129c-1-2-4-3-6-3z m25-24c-2 0-5 1-6 3-3 3-3 8 0 11l129 129c3 3 8 3 12 0 3-3 3-8 0-11l-130-129c-1-2-3-3-5-3z"/>
<glyph glyph-name="sucesso" unicode="&#89;" d="M256 10c-29 0-59 6-87 16-111 42-176 157-155 273 1 4 6 8 10 7 5-1 9-6 8-11-19-107 41-213 143-252 57-21 119-19 174 5 56 25 98 70 120 127 21 57 19 119-5 174-25 56-70 98-127 120-99 37-209 3-268-84-3-4-9-5-13-2-4 3-5 8-2 12 64 94 183 131 289 91 62-24 110-69 137-129 27-60 29-127 6-188-24-62-69-110-129-137-33-15-67-22-101-22z m-42 129c-3 0-5 1-7 3l-101 108c-4 3-4 9 0 13 4 3 9 3 13-1l94-100 180 208c3 4 9 4 13 1 3-3 4-9 1-13l-186-216c-2-2-4-3-7-3 0 0 0 0 0 0z"/>
<glyph glyph-name="erro" unicode="&#90;" d="M256 11c-64 0-125 25-171 70-84 82-98 212-33 310 2 4 8 5 12 2 4-2 6-8 3-12-60-91-47-211 31-287 42-42 98-65 158-65 1 0 2 0 3 0 60 1 117 25 159 69 43 43 66 100 65 161-1 60-25 117-69 159-75 73-189 86-278 30-4-2-10-1-13 3-2 4-1 10 3 13 96 60 220 46 301-33 47-45 73-107 74-172 1-66-24-127-70-174-45-47-107-73-172-74-1 0-2 0-3 0z m107 127c-2 0-4 1-6 3l-215 215c-4 4-4 10 0 13 3 4 9 4 12 0l216-215c3-4 3-9 0-13-2-2-4-3-7-3z m-215 0c-2 0-5 1-6 3-4 4-4 9 0 13l215 215c3 4 9 4 13 0 3-3 3-9 0-13l-216-215c-1-2-4-3-6-3z"/>
<glyph glyph-name="aguarde" unicode="&#48;" d="M284 16c-4 0-8 3-9 8-1 5 3 9 8 10 80 10 147 62 176 137 20 54 18 113-5 165-24 52-66 92-120 113-5 2-7 7-5 12 1 4 7 7 11 5 59-22 105-66 130-123 26-56 28-120 6-178-31-82-104-139-191-149 0 0-1 0-1 0z m-106 13c-1 0-2 0-4 1-120 45-181 180-135 301 30 78 100 135 184 148 5 0 9-3 10-8 1-5-3-10-8-10-76-12-141-64-169-137-42-111 14-235 125-277 5-2 7-7 5-12-1-4-5-6-8-6z m-166-20c-4 0-8 4-9 9 0 5 3 9 8 10l157 18-19 155c0 6 3 10 8 11 5 0 10-3 10-8l20-165c0-2-1-5-2-7-2-1-4-3-6-3l-166-20c0 0 0 0-1 0z m361 278c-4 0-8 3-9 7l-36 162c0 2 0 4 1 6 2 2 4 4 6 4l163 36c5 2 10-2 11-7 1-4-2-9-7-10l-154-35 34-152c1-5-2-10-7-11-1 0-1 0-2 0z"/>
<glyph glyph-name="leitura-obrigatoria" unicode="&#49;" d="M506 248c0 10-8 18-19 18l-23 0 0 92-121 0 0 24c0 50-40 90-89 90-50 0-90-40-90-90l0-24-116 0 0-92-23 0c-11 0-19-8-19-18l0-1c0-1 0-1 0-1l0-15 0 0 0-54c0-19 16-35 34-35l7 0 0-66 162 0c4-20 21-36 43-36 21 0 38 16 42 36l170 0 0 66 8 0c19 0 34 16 34 35l0 69c0 0 0 0 0 1z m-252 211c40 0 73-31 76-71l-3 0c-20 0-36 17-36 37 0 1-1 2-1 3 0 3-3 6-6 6-4 0-7-3-7-7 0-20-16-37-35-37l-64 0c4 39 36 69 76 69z m-77-82l65 0c18 0 33 10 41 25 9-16 25-27 44-27l3 0 0-17-37 0c-18 0-33-11-41-26-8 15-23 26-41 26 0 0 0 0 0 0-1 0-1 0-1 0l-33 0 0 19z m-116-32l149 0c0 0 0 0 1 0 0 0 0 0 0 0 19 0 34-17 34-38 0 0 0-1 0-1 0-4 3-7 7-7 0 0 0 0 0 0 0 0 0 0 0 0 4 0 7 3 7 7 0 0-1 1-1 1 1 21 16 38 35 38l158 0 0-21-162 0c0 0-1 0-1 0 0 0 0 0 0 0-4 0-7-3-7-7l0 0c0-16-13-29-29-29-17 0-30 13-30 29 0 2-1 4-2 5-1 1-3 2-5 2l-154 0z m-41-168l0 58c0 0-1 1-1 1l0 12c0 3 3 5 6 5l23 0 0-10c0-2 1-4 2-5 1-1 3-2 5-2l46 0c2 0 4-2 4-4l0-3c0-2-2-4-4-4-1 0-1 0-1 0l-23 0c-4 0-7-3-7-6 0-4 3-7 7-7l24 0c2 0 4-2 4-4l0-3c0-2-2-4-4-4l-26 0c-3 0-6-3-6-7 0-3 3-6 6-6l25 0c0 0 0 0 1 0 2 0 4-3 4-5l0-3c0-2-2-4-4-4l-24 0c-3 0-6-3-6-7 0-3 3-6 6-6l19 0c0 0 1-1 1-1 2 0 3-1 3-2l0-2c0-2-1-3-3-3l-40 0c-1 0-1 0-2 0l-15 0c-11 0-20 10-20 22z m41-35l36 0c9 0 16 7 16 16l0 2c0 2-1 4-2 6 4 4 7 9 7 14l0 3c0 4-1 8-4 11 3 3 4 7 4 11l0 3c0 4-1 8-4 11 3 3 4 6 4 10l0 3c0 9-8 17-17 17l-40 0 0 62 148 0 0-221-148 0z m191-89c-17 0-30 14-30 30l0 204c8-8 18-13 30-13 11 0 21 5 29 12l0-203c0-16-13-30-29-30z m42 37l0 221 157 0 0-62-40 0c-9 0-17-8-17-17l0-3c0-4 1-7 4-10-3-3-4-7-4-11l0-3c0-4 1-8 4-11-3-3-4-7-4-11l0-3c0-5 3-10 7-14-1-2-2-4-2-6l0-2c0-9 7-16 16-16l36 0 0-52z m199 87c0-12-10-22-21-22l-15 0c0 0-1 0-1 0l-41 0c-2 0-3 1-3 3l0 2c0 1 1 2 3 2 0 0 1 1 1 1l19 0c3 0 6 3 6 6 0 4-3 7-6 7l-24 0c-2 0-4 2-4 4l0 3c0 2 2 5 4 5 1 0 1 0 1 0l25 0c3 0 6 3 6 6 0 4-3 7-6 7l-26 0c-2 0-4 2-4 4l0 3c0 2 2 4 4 4l24 0c4 0 7 3 7 7 0 3-3 6-7 6l-23 0c0 0 0 0-1 0-2 0-4 2-4 5l0 2c0 2 2 4 4 4l46 0c4 0 7 3 7 7 0 0 0 0 0 0 0 0 0 0 0 1l0 9 23 0c3 0 6-2 6-4l0-18 0-54z"/>
<glyph glyph-name="elogios" unicode="&#50;" d="M409 310c7 8 15 18 15 31 0 13-8 23-15 30-2 3-6 7-7 9 0 2 1 8 2 12 2 10 4 22-3 33-6 11-18 15-27 19-4 1-9 3-11 4-1 2-3 7-4 11-4 9-8 21-19 27-5 3-11 5-17 5-6 0-11-1-16-2-4-1-8-2-10-2-1 0-2 0-2 0-1 1-6 5-9 7-7 7-17 15-30 15-13 0-23-8-30-15-3-2-8-6-9-7 0 0-1 0-2 0-2 0-6 1-10 2-5 1-10 2-16 2-6 0-12-2-17-5-11-6-15-18-19-27-1-4-3-9-4-11-2-1-7-3-11-4-9-4-21-8-27-19-7-11-5-23-3-33 1-4 2-10 2-12-1-2-5-6-7-9-7-7-15-17-15-30 0-13 8-23 15-31 2-2 6-7 7-8 0-2-1-8-2-12-2-10-4-22 3-33 6-11 18-15 27-19 4-1 9-3 11-4 1-2 3-7 4-11 3-9 7-20 17-26l0-178c0-6 4-12 11-15 2-1 4-1 6-1 4 0 8 2 11 5l58 58 58-58c3-3 7-5 11-5 2 0 4 0 6 1 7 3 11 9 11 15l0 178c10 6 14 17 17 26 1 4 3 9 4 11 2 1 7 3 11 4 9 4 21 8 27 19 7 11 5 23 3 33-1 4-2 10-2 12 1 1 5 6 7 8z m-84-291l-69 70-69-70 0 172c1 0 1 0 2 0 6 0 11 1 16 2 4 1 8 2 10 2 1 0 2 0 2 0 1-1 6-5 8-7 8-7 18-15 31-15 13 0 23 8 30 15 3 2 7 6 9 7 0 0 1 0 2 0 2 0 6-1 10-2 5-1 10-2 16-2 1 0 1 0 2 0l0-172z m62 287c-4-12 6-30 0-41-6-11-27-11-35-20-9-8-9-29-20-35-3-2-6-2-9-2-8 0-18 3-26 3-2 0-4 0-6-1-12-3-22-21-35-21-13 0-23 18-35 21-2 1-4 1-6 1-8 0-18-3-26-3-3 0-6 0-9 2-11 6-11 27-20 35-8 9-29 9-35 20-6 11 4 29 0 41-3 12-21 22-21 35 0 13 18 23 21 35 4 12-6 30 0 41 6 11 27 11 35 20 9 8 9 29 20 35 3 2 6 2 9 2 8 0 18-3 26-3 2 0 4 0 6 1 12 3 22 21 35 21 13 0 23-18 35-21 2-1 4-1 6-1 8 0 18 3 26 3 3 0 6 0 9-2 11-6 11-27 20-35 8-9 29-9 35-20 6-11-4-29 0-41 3-12 21-22 21-35 0-13-18-23-21-35z m-131 122c-48 0-87-39-87-87 0-48 39-87 87-87 48 0 87 39 87 87 0 48-39 87-87 87z m0-158c-39 0-71 32-71 71 0 39 32 71 71 71 39 0 71-32 71-71 0-39-32-71-71-71z"/>
<glyph glyph-name="incidentes" unicode="&#51;" d="M256 503c-136 0-247-111-247-247 0-136 111-247 247-247 136 0 247 111 247 247 0 136-111 247-247 247z m226-205c0-1-1-2-1-4-1-14-15-35-23-48l-3-4c-7-10-10-27-12-41-2-8-3-16-5-21-3-7-8-15-13-20 0 3 1 7 3 10 4 11-2 21-7 29-2 3-5 6-5 7 0 1-17 50-27 52-3 1-36 6-47 2-6-2-22-1-30 6-5 5-8 21-10 50l-1 3c0 3 3 5 8 9 3 3 7 6 9 10l1 2c1 2 3 6 5 7 9-2 16 2 19 3 4 2 9-1 17-4 7-4 16-8 26-9 14-2 19 0 27 3 4 1 8 3 16 5 13 3 17 10 17 15 3 13-14 24-14 24-7 5-14 1-21-3-3-2-6-4-9-4-2-1-2-1-7 1-4 1-9 3-18 5-6 1-6 2-7 6-1 3-2 8-8 11-3 2-6 2-9 1-4-1-6-5-7-7-1-2-2-3-6-4-5-2-9-4-12-5-4-3-6-3-13-2 1 2 3 4 5 6 1 1 2 2 3 4 8 8 24 31 28 45 3 7 2 13-2 17-6 7-17 5-28 2-5-1-6-1-10 1-3 2-7 4-14 7-6 1-7 6-7 18 0 0 0 0 0 1 97-15 175-90 192-186z m-285 181c6-14 13-37 9-45-2-4-2-7 0-10-6 0-13-1-17-5-23-21-67-73-69-90-1-2-1-3-1-4-5 7-12 16-21 19-6 2-12 1-18-2-14-9-20-27-17-41 1-9 7-16 14-17 7-2 13 0 17 2 1-3 1-7 3-12 2-6 3-11 3-15-12 4-27 10-32 14-4 4-6 10-7 16-2 6-4 12-8 16-4 5-7 33-6 47 0 0 0 1 0 1 28 61 83 108 150 126z m-171-223c0 20 2 40 7 59 2-10 4-18 9-22 1-1 2-5 3-8 2-7 4-17 12-24 12-10 44-20 47-21-4-16-4-39-4-39 1-14 13-36 38-55 14-10 13-21 11-34 0-4 0-9 0-13 1-10 6-24 12-37 3-7 6-12 7-17 0-1 1-2 1-2-84 34-143 117-143 213z m159-203c0-2 0-4 0-6 0 1-1 2-1 3-2 5-5 12-8 18-5 12-10 25-11 33 0 2 0 6 1 10 1 13 3 33-18 49-21 15-31 34-32 42 0 9 3 31 5 38 6 2 19 7 27 14 1 0 2 1 6 1 8 0 20-4 31-14 17-16 33-30 55-35 7-2 13-3 18-3 4 0 9-1 10-2 0-2 0-2-3-5-2-3-5-6-7-11-1-2-3-6-5-13-8-20-27-73-40-82-5-3-9-6-12-8-11-7-18-12-16-29z m71-27c-18 0-36 2-54 6 0 2 0 9-1 22-1 9-1 9 9 14 3 2 7 5 12 8 16 12 32 52 46 90 2 6 4 11 5 12 1 3 2 4 4 7 4 3 10 9 7 20-3 12-14 13-24 14-5 1-10 1-17 3-17 4-31 16-47 31-12 11-29 18-42 18-7 0-13-2-17-5-5-5-15-9-21-11 0 6 0 15-3 24-2 6-2 10-2 12 0 3 0 7-5 12-6 5-13 1-17-1-4-2-6-3-8-2-1 0-3 4-2 10 0 6 3 14 10 18 1 1 2 1 4 0 6-2 13-12 16-20l2-4 5 0c1-1 17-1 20 23 1 9 36 54 63 80 2 1 8 0 11 0 5 0 9 0 13 2l3 2 1 4c1 4-2 8-4 12-1 1-1 1-1 2 6 16-4 42-9 53 14 3 28 4 43 4 6 0 12 0 18 0 0-1 0-2 0-3 0-10-1-29 18-34 6-2 9-4 11-5 6-4 11-6 23-2 5 1 8 1 10 1 0 0 0 0 0 0-4-11-18-31-25-40-1-1-2-2-3-3-6-6-13-14-11-22 2-5 6-9 14-11 12-3 18-1 25 3 2 1 5 3 9 4 5 1 8 3 11 5 2-5 6-10 18-12 7-2 11-3 15-5 5-1 10-4 18-1 4 1 9 3 12 6 2 0 4 2 6 2 2-2 4-5 5-6-1-1-2-1-5-2-9-2-14-4-18-6-6-2-8-3-19-2-8 1-14 4-21 7-10 5-20 10-31 6l-2-2c0 0-3-2-7-1-14 2-19-9-23-16l-1-2c0-1-3-3-5-4-5-5-14-12-13-23l0-4c2-25 5-51 16-60 13-12 36-13 46-9 5 1 27-1 35-2 5-8 16-33 18-41 1-5 4-9 7-13 3-4 7-10 6-12-1-3-9-22-4-33 1-3 4-5 7-6 1 0 2-1 3-1 13 0 30 27 34 37 3 6 4 15 6 24 2 12 5 28 10 35l2 4c5 7 10 15 15 24 0-2 0-3 0-5 0-127-103-230-230-230z"/>
<glyph glyph-name="guarda-sol" unicode="&#52;" d="M345 487c-30 13-62 19-95 19-96 0-182-56-220-144-1-4 0-8 4-10l130-56c0 0 0 0 0 0l75-33-105-242-50 0c-4 0-8-3-8-8 0-4 4-7 8-7l368 0c5 0 8 3 8 7 0 5-3 8-8 8l-300 0 102 236 11-5 194-84c1-1 2-1 3-1 3 0 6 2 7 5 53 121-3 262-124 315z m-16-245l-152 65c43 96 107 167 150 167 4 0 8 0 12-2 36-16 40-111-10-230z m-79 249c17 0 34-3 51-7-45-19-99-84-138-170l-115 49c37 78 115 128 202 128z m208-306l-115 50c37 89 48 172 31 218 86-57 123-169 84-268z m-410-164l-17 0c-4 0-8-3-8-8 0-4 4-7 8-7l17 0c4 0 8 3 8 7 0 5-4 8-8 8z"/>
<glyph glyph-name="tarefas" unicode="&#53;" d="M412 505l-15-5-2-35-91-63-289 0-8-7 0-265 2-5 116-116 5-2 264 0 8 8 0 289 64 90 34 3 5 14z m-291-464l-80 80 80 0z m261-14l-241 0 0 106-8 8-106 0 0 241 277 0 32-32-75-75 14-14 75 75 32-32z m76 387l-5-4-62-87-68 68 88 61 3 5 1 16 58-58z"/>
<glyph glyph-name="cartao" unicode="&#54;" d="M456 303l-70-47 0 95c0 5-4 9-9 9l-242 0c-5 0-9-4-9-9l0-95-70 47c-4 3-10 2-13-2-2-5-1-11 3-13l174-119c10-7 23-10 36-10 13 0 26 3 36 10l174 119c4 2 6 8 3 13-3 4-9 5-13 2z m-174-119c-14-9-38-9-52 0l-87 60c1 1 1 3 1 5l0 93 224 0 0-93c0-2 0-4 1-5z m211 155l-202 155c-9 8-22 12-35 12-13 0-26-4-35-12l-202-155c-9-6-14-19-14-30l0-256c0-26 20-47 46-47l410 0c26 0 46 21 46 47l0 256c0 11-6 24-14 30z m-4-286c0-15-13-28-28-28l-410 0c-15 0-28 13-28 28l0 256c0 5 3 12 7 15l202 155c6 5 15 8 24 8 9 0 18-3 24-8l202-155c4-3 7-10 7-15z m-168 252l-130 0c-5 0-10-5-10-10 0-5 5-9 10-9l130 0c5 0 9 4 9 9 0 5-4 10-9 10z m0-38l-130 0c-5 0-10-4-10-9 0-5 5-9 10-9l130 0c5 0 9 4 9 9 0 5-4 9-9 9z"/>
<glyph glyph-name="aniversario-de-contratacao" unicode="&#55;" d="M346 181l11 0 0 27c0 1 0 3-2 4-6 5-9 14-9 25 0 15 11 35 17 46 7-11 17-31 17-46 0-11-3-20-9-25-1-1-2-3-2-4l0-27 11 0 0 24c8 7 12 18 12 32 0 25-23 59-24 60-2 3-7 3-10 0-1-1-23-35-23-60 0-14 4-25 11-32l0-24z m153-91c3 0 6 2 6 6l0 45c0 16-13 28-28 28l-227 0c-16 0-29-12-29-28l0-45c0-4 3-6 6-6 2 0 4 0 6 1l0-64-6 0c-3 0-6-2-6-5 0-3 3-6 6-6l272 0c3 0 6 3 6 6 0 3-3 5-6 5l-5 0 0 64c1-1 3-1 5-1z m-17-63l-238 0 0 70c3 2 5 5 7 8 4 5 6 8 10 8 4 0 6-3 11-9 4-6 10-14 23-14 13 0 19 8 24 15 4 5 6 8 10 8 4 0 6-3 11-9 4-6 11-14 23-14 13 0 19 8 24 15 4 5 6 8 10 8 4 0 6-3 11-9 4-6 11-14 23-14 13 0 19 8 24 15 4 5 6 8 10 8 4 0 6-3 11-9 2-2 4-5 6-7l0-70z m3 84c-5 6-10 13-20 13-10 0-15-7-19-13-5-6-8-10-15-10-6 0-10 4-14 10-5 6-10 13-20 13-10 0-15-7-19-13-5-6-8-10-15-10-6 0-10 4-14 10-5 6-10 13-20 13-10 0-15-7-19-13-5-6-8-10-15-10-6 0-10 4-14 10-5 6-10 13-20 13-10 0-15-7-19-13-4-4-6-7-9-9l0 39c0 9 7 17 17 17l227 0c9 0 17-8 17-17l0-39c-4 2-6 5-9 9z m-302 75c0 2-11 38-29 57 6 7 10 17 11 25 3 2 6 4 7 7 1 1 1 2 1 3-2 21-19 37-40 37-22 0-40-18-40-40 0-6 1-12 2-15 1-2 3-4 6-4l0 0c0 0 1 0 1 0 6-13 16-27 30-27 5 0 10 2 14 5 12-12 21-36 25-46l-39-18-38 18c1 5 4 15 9 24 1 3 0 6-3 8-3 1-6 0-8-3-7-15-10-31-10-31 0-3 1-5 3-6l45-22c0 0 1 0 2 0 1 0 2 0 2 0l46 22c3 1 4 4 3 6z m-50 117c14 0 26-10 28-24-1 0-2-1-3-2 0 0 0 0-1 0-1 0-2-1-4-1 0 0 0 1 0 1 0 2-1 4-3 6-2 1-4 1-6-1-8-5-27-12-39-14 0 2 0 4 0 7 0 16 12 28 28 28z m-19-45c9 2 19 6 27 10 0-1 0-2 1-3 1-1 3-2 5-2 1 0 3 1 5 1-3-11-12-23-20-23-7 0-14 8-18 17z m26 190c-6 0-10 4-10 9 0 6 4 10 10 10 5 0 9-4 9-10 0-5-4-9-9-9z m0 11c-2 0-2-1-2-2 0-1 0-2 2-2 1 0 2 1 2 2 0 1-1 2-2 2z m90-128l-181 0c-3 0-6 3-6 6 0 3 3 6 6 6l181 0c3 0 6-3 6-6 0-3-3-6-6-6z m-37-200l-121 0c-3 0-5 3-5 6 0 3 2 6 5 6l121 0c4 0 6-3 6-6 0-3-2-6-6-6z m0-36l-121 0c-3 0-5 3-5 6 0 3 2 6 5 6l121 0c4 0 6-3 6-6 0-3-2-6-6-6z m73 301l-36 0c-3 0-5-2-5-5 0-3 2-6 5-6l31 0 0-146c0 0 0 0 0 0l0-39c0-4 2-6 5-6 4 0 6 2 6 6l0 191c0 3-2 5-6 5z m-73-337l-32 0c-1 0-1 0-1 0l-142 0 0 326 56 0 0-5c0-3 2-6 6-6l120 0c3 0 5 3 5 6l0 43c0 4-2 6-5 6l-86 0 0 33c0 12 10 22 23 22l6 0c12 0 22-10 22-22l0-15c0-4 3-6 6-6 3 0 6 2 6 6l0 15c0 19-16 34-34 34l-6 0c-19 0-34-15-34-34l0-33-23 0c-4 0-6-2-6-6l0-27-61 0c-3 0-6-2-6-5l0-338c0-3 3-5 6-5l180 0c4 0 6 2 6 5 0 4-2 6-6 6z m-108 359l109 0 0-33-109 0z"/>
</font>
</defs>
</svg>
